<svg xmlns="http://www.w3.org/2000/svg" viewBox="0 0 498.379 424.366"><g data-name="Layer 2"><g data-name="Layer 1"><path fill="#d5efc8" d="M327.33032,422.40767c16.25-5.08,30.83-10.27,48.37-20.12,18.09-10.16,98.45-58.51,108.9-142.19a159.61541,159.61541,0,0,0-6.66-68.16c-3.23-9.47-9.93-28.49-26.84-47.3-20.7-23.04-44.32-31.97-58.17-37.02-29.14-10.63-53.58-10.07-65.22-9.69-12.56.41-34.73,1.33-59.93,12.34-16.44,7.18-26.66,15.37-41.72,27.61-23.86,19.41-27,27.49-68.74,67.57-11.46,11-20.88,19.67-35.26,28.21-9.97,5.92-18.03,9.23-32.9,15.27-36.55,14.85-46.95658,17.85676-58.91658,26.21676-23.26,16.27-21.75342,34.01324-22.75342,37.83324a75.12694,75.12694,0,0,0-1.77,29.97c3.05,20.07,13.86,33.19,20.57,41.13a113.09822,113.09822,0,0,0,32.9,26.44,210.24676,210.24676,0,0,0,26.96,11.89Z"/><path fill="none" stroke="#bbec6c" stroke-miterlimit="10" d="M266.26747,103.60893c26.24642-11.46027,49.33564-12.42712,62.42676-12.85258,12.11573-.39376,37.57416-.975,67.935,10.09845,14.42589,5.26153,39.0266,14.5633,60.5907,38.55771,17.60788,19.59231,24.58686,39.40668,27.94924,49.26816a166.31569,166.31569,0,0,1,6.93628,70.99515c-10.879,87.16758-94.5869,137.52535-113.429,148.1105"/><path fill="#4f66d0" d="M416.81409,417.6779l.01535-.00024-1.7985,4.9216h-17.6103L396.336,418.033l.08118-.00145A90.94618,90.94618,0,0,0,416.81409,417.6779Z"/><polygon fill="#d5daf3" points="396.336 251.228 216.29 252.057 38.73 251.228 39.69 413.498 217.225 413.498 217.225 413.498 395.355 413.498 396.336 251.228"/><path fill="#8795de" d="M203.395 249.74262c-67.9741-10.27834-135.84736-4.2361-158.6412-1.64767a11.50811 11.50811 0 00-9.93245 9.05475 171.76177 171.76177 0 00-3.47914 52.534c7.50276.01621 14.71605.45721 19.579 1.74146l.36388 26.779 151.44612.15517a11.49075 11.49075 0 0011.48424-11.10482c.92541-26.17081-.27362-53.12947-1.06687-66.82658A11.48745 11.48745 0 00203.395 249.74262zM228.49272 249.63592c69.49494-10.32016 139.13221-4.13 162.2347-1.52691a11.50963 11.50963 0 019.92956 9.01343 168.71971 168.71971 0 013.54959 52.56121c-7.64182.01622-12.26033 2.57177-17.21341 3.856l-3.09909 24.66449-154.47543.15539a11.4902 11.4902 0 01-11.48286-11.07764c-.98458-26.14848.05862-53.12776.76756-66.88174A11.49 11.49 0 01228.49272 249.63592z"/><path fill="#4f66d0" d="M310.16605 266.92808a7.034 7.034 0 00-3.51651-1.71108c-1.55356-.31039-3.00185 1.24994-3.11571 3.2766l-3.25656 57.96451a9.54542 9.54542 0 01-2.35074 5.84984 22.04677 22.04677 0 00-2.27947 2.99551c-.79622 1.25423-.1408 3.10652 1.099 3.17315 13.85617.74462 75.86376-.69564 87.32952-.045 1.01439.05756 1.2641-1.31789.858-2.5a6.16382 6.16382 0 00-1.62257-2.85707 5.61258 5.61258 0 01-1.70061-4.57345c.57516-11.01427 2.43292-37.78177 5.19407-47.451.87214-3.05411-1.432-6.01332-3.77922-4.78334a9.69066 9.69066 0 00-1.41008.92327 5.926 5.926 0 01-6.71615.4868c-8.994-5.0792-32.87239-16.2172-59.64-9.40048A5.36952 5.36952 0 01310.16605 266.92808zM19.01134 417.678l-.015-.00024L20.755 422.5993h17.22L39.0356 418.033l-.07939-.00145A86.97522 86.97522 0 0119.01134 417.678z"/><rect width="161.407" height="24.091" x="53.144" y="338.371" fill="#a2aee6" rx="6.965"/><rect width="161.02" height="49.434" x="53.531" y="364.065" fill="#a2aee6" rx="5.868"/><path fill="#a2aee6" d="M436.20184,322.98972A11.4653,11.4653,0,0,0,425.56835,310.462c-8.8495-.59517-21.11583-1.13338-31.01593-.49046a11.45562,11.45562,0,0,0-10.683,11.28942l-1.246,92.08087a5.55669,5.55669,0,0,0,5.55617,5.63187h34.18854a5.55668,5.55668,0,0,0,5.53368-5.05158Z"/><rect width="164.954" height="24.091" x="216.843" y="338.371" fill="#a2aee6" rx="7.041" transform="rotate(-180 299.32 350.416)"/><rect width="163.081" height="49.434" x="216.843" y="364.065" fill="#a2aee6" rx="5.906" transform="rotate(-180 298.383 388.782)"/><path fill="#4f66d0" d="M115.08686 262.75989a43.77581 43.77581 0 00-5.7888 1.19092 31.52783 31.52783 0 00-5.445 2.05127 20.99764 20.99764 0 00-4.75191 3.25537l-1.02525 1.02686c-.33342.35156-.60426.75537-.91578 1.13183l-.46786.56934-.3847.62573c-.25059.42261-.51536.842-.79132 1.26318a13.8824 13.8824 0 012.9672-5.22558 17.21928 17.21928 0 014.87249-3.63989 23.02658 23.02658 0 015.7459-1.89942A21.72593 21.72593 0 01115.08686 262.75989zM109.16589 295.183a43.79277 43.79277 0 00-1.73471-5.64966 31.55109 31.55109 0 00-2.55877-5.22583 20.992 20.992 0 00-3.69169-4.42139l-1.11947-.92334c-.38158-.29834-.80932-.52978-1.21358-.8042l-.61132-.41162-.65938-.32348c-.44437-.20948-.88718-.43335-1.33256-.668a13.88474 13.88474 0 015.48364 2.45776 17.22926 17.22926 0 014.08589 4.50513 23.04323 23.04323 0 012.43614 5.53979A21.72271 21.72271 0 01109.16589 295.183zM70.43987 266.528a21.73134 21.73134 0 015.95416-.70068 23.04116 23.04116 0 015.98925.86718 17.22262 17.22262 0 015.43309 2.73365 13.88309 13.88309 0 013.83385 4.62744c-.34523-.36646-.67917-.7334-.99968-1.10572l-.488-.54882-.56009-.47925c-.37245-.31616-.70963-.66651-1.09928-.95459l-1.18877-.832a20.988 20.988 0 00-5.24724-2.37574 31.52835 31.52835 0 00-5.71949-1.06933A43.77823 43.77823 0 0070.43987 266.528zM81.9299 297.4198a21.72417 21.72417 0 01-.13255-5.99389A23.04127 23.04127 0 0183.229 285.546a17.2235 17.2235 0 013.23673-5.14917 13.8853 13.8853 0 014.97038-3.37745c-.39757.30884-.79452.60645-1.19552.89014l-.59277.43384-.53006.51221c-.35015.34057-.731.64306-1.05455 1.00366l-.94113 1.10449a20.99181 20.99181 0 00-2.86315 4.998 31.53592 31.53592 0 00-1.60725 5.59228A43.7812 43.7812 0 0081.9299 297.4198zM179.55433 266.28479a43.8004 43.8004 0 00-4.902 3.30127 31.55093 31.55093 0 00-4.257 3.96656 20.99661 20.99661 0 00-3.15834 4.81714l-.55814 1.33935c-.17482.45191-.27188.92822-.417 1.39478l-.21634.70459-.11807.72509c-.07124.48584-.15671.97461-.25194 1.469a13.88437 13.88437 0 01.75879-5.96118 17.22465 17.22465 0 013.12375-5.21851 23.04422 23.04422 0 014.59305-3.94043A21.72531 21.72531 0 01179.55433 266.28479zM186.39869 298.52576a43.793 43.793 0 00-3.75151-4.56665 31.53458 31.53458 0 00-4.35268-3.86133 20.99529 20.99529 0 00-5.095-2.687l-1.38631-.42847c-.4664-.13134-.95-.18261-1.42816-.283l-.72191-.14844-.73288-.04859c-.4906-.0249-.98522-.06372-1.48641-.11157a13.8865 13.8865 0 016.00631.1897 17.22891 17.22891 0 015.49136 2.6145 23.04151 23.04151 0 014.35855 4.19824A21.72515 21.72515 0 01186.39869 298.52576zM139.68861 286.7367a21.72518 21.72518 0 015.24119-2.91089 23.04866 23.04866 0 015.86951-1.47388 17.22832 17.22832 0 016.06425.46387 13.88487 13.88487 0 015.30472 2.82349c-.45859-.20777-.90691-.42041-1.34483-.64283l-.66-.32226-.70013-.23047c-.46468-.15088-.90971-.34692-1.37955-.46509l-1.41578-.31787a20.99458 20.99458 0 00-5.75647-.20361 31.52287 31.52287 0 00-5.69678 1.18432A43.77963 43.77963 0 00139.68861 286.7367zM162.05585 310.94446a21.72312 21.72312 0 01-2.4003-5.49365 23.04176 23.04176 0 01-.91017-5.98291 17.225 17.225 0 011.03717-5.99292 13.88344 13.88344 0 013.31406-5.01269c-.25035.43676-.50442.86279-.76753 1.27758l-.38347.62647-.2957.675c-.1944.44824-.4317.8728-.594 1.32934l-.45084 1.37915a20.99556 20.99556 0 00-.749 5.71118 31.53972 31.53972 0 00.63844 5.78345A43.77442 43.77442 0 00162.05585 310.94446zM288.50674 265.17884a43.78146 43.78146 0 00-5.87818.61279 31.54455 31.54455 0 00-5.62112 1.50293 20.99653 20.99653 0 00-5.05045 2.76978l-1.12173.92041c-.36652.31689-.676.69189-1.02317 1.03564l-.52185.52051-.44467.58472c-.29114.3955-.59607.78686-.91232 1.17871a13.88469 13.88469 0 013.46924-4.90674 17.2206 17.2206 0 015.20843-3.14038 23.04205 23.04205 0 015.90552-1.32227A21.72408 21.72408 0 01288.50674 265.17884zM279.40969 296.85779a43.78823 43.78823 0 00-1.16772-5.79345 31.54387 31.54387 0 00-2.02967-5.45313 20.99529 20.99529 0 00-3.23654-4.76465L271.953 279.817c-.35018-.33472-.753-.60718-1.12811-.92016l-.56766-.47022-.62414-.387c-.42151-.25244-.84-.5188-1.26-.79639a13.884 13.884 0 015.21381 2.98779 17.22468 17.22468 0 013.62054 4.887 23.04482 23.04482 0 011.87662 5.75341A21.7244 21.7244 0 01279.40969 296.85779zM243.70594 264.515a21.72537 21.72537 0 015.99426-.10864 23.03685 23.03685 0 015.87419 1.45508 17.21975 17.21975 0 015.13626 3.25708 13.88477 13.88477 0 013.35767 4.98388c-.30731-.39892-.60336-.79712-.8855-1.19922l-.43136-.59448-.51-.532c-.33936-.35156-.64026-.73364-.99955-1.0586l-1.1007-.94555a20.99186 20.99186 0 00-4.98667-2.88281 31.54209 31.54209 0 00-5.58578-1.62964A43.81167 43.81167 0 00243.70594 264.515zM252.086 296.39124a21.72337 21.72337 0 01.4606-5.97754 23.04065 23.04065 0 012.00592-5.70947A17.22313 17.22313 0 01258.2824 279.9a13.88375 13.88375 0 015.27988-2.86939c-.42615.26807-.85056.52491-1.27765.76758l-.63272.373-.5781.45727c-.38214.30445-.79095.56763-1.14862.89454l-1.04568 1.0061a20.99 20.99 0 00-3.3432 4.69043 31.54254 31.54254 0 00-2.15216 5.406A43.77525 43.77525 0 00252.086 296.39124z"/><path fill="#4f66d0" d="M112.819,277.22083a7.25592,7.25592,0,0,1,3.46975-1.28,2.721,2.721,0,0,1,2.81569,2.919l.00012,49.17426a7.48839,7.48839,0,0,0,1.94212,5.05879,18.75193,18.75193,0,0,1,2.02768,2.64155,1.69594,1.69594,0,0,1-1.22679,2.63126c-13.34833-.02861-73.09325-.00063-84.14064.00484-.97737.00049-1.143-1.17457-.68913-2.155a5.20436,5.20436,0,0,1,1.71255-2.33908,4.52816,4.52816,0,0,0,1.88013-3.78689c.04189-9.3419-.03061-36.25893-2.16083-44.56718-.67285-2.62424,1.69985-5.01732,3.88785-3.86563a9.35916,9.35916,0,0,1,1.3045.84778,6.31427,6.31427,0,0,0,6.42425.73077c8.91238-3.86808,32.44732-12.15281,57.78842-5.11629A5.7095,5.7095,0,0,0,112.819,277.22083Z"/><path fill="#a2aee6" d="M13.703,418.97372A5.55669,5.55669,0,0,1,8.16835,413.911L.04956,322.94962A11.46629,11.46629,0,0,1,10.672,310.44689a245.08016,245.08016,0,0,1,29.88643-.48979,11.44669,11.44669,0,0,1,10.66736,11.29084l1.21854,92.09558a5.55668,5.55668,0,0,1-5.5562,5.6302Z"/><path fill="#6c7fd8" d="M240.51544,285.10656a7.85149,7.85149,0,0,0-3.46975-1.13011,2.57164,2.57164,0,0,0-2.81568,2.57726l-.00012,43.41742a6.2005,6.2005,0,0,1-1.94212,4.46655,16.99174,16.99174,0,0,0-2.02768,2.3323,1.48064,1.48064,0,0,0,1.22679,2.32322c13.34833-.02525,73.09324-.00056,84.14063.00428.97738.00043,1.143-1.03707.68914-1.90268a4.67484,4.67484,0,0,0-1.71255-2.06524A3.86631,3.86631,0,0,1,312.724,331.786c-.04189-8.24824.03061-32.01409,2.16083-39.34969a2.85454,2.85454,0,0,0-3.88785-3.41308,9.58016,9.58016,0,0,0-1.3045.74853,7.01289,7.01289,0,0,1-6.42426.64522c-8.91237-3.41524-32.44731-10.73008-57.78841-4.51733A6.3302,6.3302,0,0,1,240.51544,285.10656Z"/><path fill="#d6694b" d="M171.23357,198.02119H36.70154V45.31469h134.532Zm-129.75165-4.7796H166.45319V50.09429H41.48192Z"/><rect width="128.698" height="49.814" x="40.175" y="48.177" fill="#d6694b"/><rect width="143.967" height="7.155" x="31.984" y="198.064" fill="#935b50" rx="1.291"/><rect width="124.971" height="5.724" x="41.482" y="96.171" fill="#e19974"/><line x1="61.367" x2="103.865" y1="162.477" y2="121.668" fill="none" stroke="#e19974" stroke-miterlimit="10"/><line x1="61.367" x2="97" y1="137.947" y2="104.96" fill="none" stroke="#e19974" stroke-miterlimit="10"/><path fill="#935b50" d="M183.46511 51.76585l-158.98586.33921a2.16821 2.16821 0 01-2.17283-2.16821V47.4829a2.16821 2.16821 0 012.16821-2.16821H183.46048a2.16821 2.16821 0 012.16821 2.16821v2.11475A2.16821 2.16821 0 01183.46511 51.76585zM24.45916 60.29453L183.445 61.42866a2.16821 2.16821 0 002.18367-2.16815V55.83625a2.16821 2.16821 0 00-2.16821-2.1682H24.47463a2.16821 2.16821 0 00-2.16821 2.1682v2.29013A2.1682 2.1682 0 0024.45916 60.29453zM24.45278 69.01234l158.98586 1.60182a2.1682 2.1682 0 002.19005-2.16809V65.546a2.1682 2.1682 0 00-2.15-2.16813l-158.98585-1.338a2.16821 2.16821 0 00-2.18646 2.16813v2.63631A2.16821 2.16821 0 0024.45278 69.01234zM24.50824 78.59735L183.4941 76.1322a2.1682 2.1682 0 002.13459-2.16794v-.06493a2.1682 2.1682 0 00-2.15-2.16812l-158.98585-1.338a2.16821 2.16821 0 00-2.18646 2.16813v3.8681A2.16821 2.16821 0 0024.50824 78.59735zM24.495 85.96732l158.98586-1.49466a2.16821 2.16821 0 002.14782-2.16811v-2.268a2.16821 2.16821 0 00-2.19853-2.168L24.44431 80.0922a2.16821 2.16821 0 00-2.13789 2.168v1.539A2.16821 2.16821 0 0024.495 85.96732zM24.47463 91.51522H183.46048a2.16821 2.16821 0 002.16821-2.1682v-.48735a2.1682 2.1682 0 00-2.17484-2.16819L24.468 87.17824a2.16821 2.16821 0 00-2.16157 2.16819V89.347A2.16821 2.16821 0 0024.47463 91.51522z"/><path fill="#935b50" d="M179.1458 93.74758a.75.75 0 01-.74219-.64892l-.20606-1.47852a.75006.75006 0 011.48536-.21l.207 1.48633a.75031.75031 0 01-.64209.84424A.72186.72186 0 01179.1458 93.74758zM177.61357 183.71a.7501.7501 0 01-.75-.74805l-.001-.51709c0-.793.00635-1.6333.021-2.51563a.75011.75011 0 011.5.0254c-.01465.87353-.021 1.70507-.021 2.49023l.001.51318a.74989.74989 0 01-.74805.752zm.102-6.03467l-.02881-.00049a.7499.7499 0 01-.72119-.77783c.04-1.05567.08936-2.063.14746-3.02735a.74988.74988 0 011.49707.08985q-.0857 1.43041-.14551 2.99414A.74979.74979 0 01177.71562 177.67532zm.36719-6.0166c-.02149 0-.04346-.001-.06543-.00293a.74928.74928 0 01-.68262-.81153c.09082-1.05713.19336-2.061.3042-3.02148a.75012.75012 0 011.49024.17285c-.10987.9458-.21045 1.93506-.3003 2.97754A.75008.75008 0 01178.08281 171.65872zm.69287-5.98828a.74971.74971 0 01-.74316-.8584c.15185-1.04.313-2.03321.48046-2.99561a.74985.74985 0 111.47754.25684c-.16455.9497-.32373 1.9292-.47363 2.95556A.75033.75033 0 01178.77568 165.67044zm1.02246-5.94a.78519.78519 0 01-.14209-.01318.75076.75076 0 01-.5957-.87793l.57666-2.96a.75019.75019 0 011.47265.28711l-.57568 2.95508A.75056.75056 0 01179.79814 159.73049zm1.13867-5.91894a.75074.75074 0 01-.73877-.88379c.17334-.95508.34131-1.93359.501-2.9541a.75026.75026 0 011.48242.23242c-.16162 1.03223-.33252 2.02246-.50781 2.98926A.74978.74978 0 01180.93681 153.81155zm.92578-5.95606a.776.776 0 01-.09472-.00586.75008.75008 0 01-.65039-.83789c.11914-.94531.22949-1.9331.32861-2.97363a.75.75 0 011.49316.14258c-.10107 1.05615-.2124 2.05859-.33349 3.01855A.74981.74981 0 01181.86259 147.85549zm.57129-6.00244c-.01562 0-.03174-.00049-.04785-.00146a.75009.75009 0 01-.70117-.7959c.06348-.99756.10791-1.98682.13525-2.98682a.71516.71516 0 01.77-.729.74965.74965 0 01.729.77c-.02735 1.01758-.07276 2.02539-.13721 3.04053A.7503.7503 0 01182.43388 141.85305zm.166-6.03027a.75021.75021 0 01-.75-.74561c-.00586-.96972-.02588-1.96386-.0586-2.99658a.74976.74976 0 01.72559-.77344.737.737 0 01.77344.72559c.03369 1.04639.05371 2.05322.05957 3.03564a.7499.7499 0 01-.74561.7544zm-.18408-6.03027a.74994.74994 0 01-.74854-.71192c-.04883-.95947-.105-1.95752-.16992-3.00342a.74977.74977 0 01.70215-.79492.74144.74144 0 01.79492.70215c.06494 1.05176.12207 2.05566.1709 3.02a.75013.75013 0 01-.71094.78711zm-.36866-6.02247a.74975.74975 0 01-.74707-.69824q-.0996-1.43994-.21435-3.00586a.75.75 0 011.49609-.10937q.11425 1.571.21436 3.01172a.74959.74959 0 01-.69629.7998C182.08232 123.76956 182.06474 123.77 182.04716 123.77zm-.43652-6.01757a.7501.7501 0 01-.74707-.69385l-.22656-3.00684a.75022.75022 0 011.49609-.11425l.22656 3.00878a.75051.75051 0 01-.69189.8042C181.64873 117.752 181.62968 117.75247 181.61064 117.75247zm-.46875-6.01465a.74985.74985 0 01-.74609-.68653q-.13038-1.53075-.26807-2.999a.74984.74984 0 011.49316-.13965q.13843 1.47363.269 3.01172a.74947.74947 0 01-.6836.81055Q181.17412 111.73782 181.14189 111.73782zm-.56348-6.0083a.75014.75014 0 01-.74511-.67432q-.15675-1.53882-.31885-2.99414a.75016.75016 0 011.49121-.165q.16187 1.46118.31982 3.00781a.74982.74982 0 01-.67041.82178C180.62968 105.72805 180.6038 105.72952 180.57841 105.72952zm-.66406-5.999a.75039.75039 0 01-.74365-.66064q-.18677-1.552-.37109-2.98877a.75021.75021 0 111.48828-.19043q.18456 1.44068.37207 3.00049a.75012.75012 0 01-.65528.834A.70514.70514 0 01179.91435 99.73049zM177.701 188.28567a.74992.74992 0 01-.749-.72412c-.01563-.45557-.03125-.95752-.04492-1.50244a.75071.75071 0 01.73193-.76807.77856.77856 0 01.76807.73193c.01269.53907.02832 1.03614.04394 1.48682a.74981.74981 0 01-.72363.77539z"/><polygon fill="#e19974" points="149.007 193.242 134.87 193.242 130.107 168.207 153.77 168.207 149.007 193.242"/><polygon fill="#d6694b" points="153.226 171.065 153.77 168.207 130.107 168.207 130.651 171.065 153.226 171.065"/><rect width="4.223" height="4.223" x="133.888" y="181.374" fill="#d6694b" transform="rotate(45 136 183.486)"/><rect width="4.223" height="4.223" x="139.861" y="181.374" fill="#d6694b" transform="rotate(45 141.973 183.486)"/><rect width="4.223" height="4.223" x="145.765" y="181.374" fill="#d6694b" transform="rotate(45 147.876 183.486)"/><path fill="#558031" d="M147.445,147.13872s1.24137,17.53748-6.03439,21.25415C141.41062,168.39287,138.89178,161.74381,147.445,147.13872Z"/><path fill="#849f4c" d="M123.96754,154.67206s11.90278,2.05371,17.44308,13.72081C141.41062,168.39287,128.32162,163.94731,123.96754,154.67206Z"/><path fill="#a6b862" d="M128.188,177.64381s6.05338-9.0561,13.22267-9.25094C141.41062,168.39287,140.33132,175.68469,128.188,177.64381Z"/><path fill="#849f4c" d="M135.6549,149.63849s8.39909,7.66866,5.75572,18.75438C141.41062,168.39287,136.75783,163.461,135.6549,149.63849Z"/><path fill="#a6b862" d="M141.41062,168.39287s2.95091-10.802,17.86844-13.572C159.27906,154.82088,155.922,164.65632,141.41062,168.39287Z"/><path fill="#849f4c" d="M163.23075,165.56913s-11.38166-4.69218-21.82013,2.82374C141.41062,168.39287,155.28746,170.05891,163.23075,165.56913Z"/><path fill="#558031" d="M163.1272 176.493s-5.49566-8.80276-21.71658-8.10016zM117.83682 166.968s14.94766-5.54254 23.76941 1.15985C141.60623 168.12785 133.22974 172.74172 117.83682 166.968z"/><path fill="#558031" d="M130.09427,150.91909s13.33785,9.43347,11.42452,17.48144C141.51879,168.40053,132.2654,160.98128,130.09427,150.91909Z"/><path fill="#849f4c" d="M153.49129,177.78237s-10.99554-1.87717-12.08067-9.3895C141.41062,168.39287,149.44476,168.79079,153.49129,177.78237Z"/><path fill="#d9b1ee" d="M342.9838,145.898a9.92989,9.92989,0,1,1-19.85977,0c0-5.48412,4.44576-13.07225,9.92989-13.07225S342.9838,140.41383,342.9838,145.898Z"/><path fill="#bd80e1" d="M330.85918,124.09188h4.309a1,1,0,0,1,1,1v8.5947a0,0,0,0,1,0,0h-6.309a0,0,0,0,1,0,0v-8.5947A1,1,0,0,1,330.85918,124.09188Z"/><line x1="333.054" x2="333.054" y1=".5" y2="109.33" fill="none" stroke="#9857bd" stroke-miterlimit="10"/><polygon fill="none" stroke="#9857bd" stroke-miterlimit="10" points="333.054 109.33 298.45 157.604 311.053 172.129 333.054 172.129 333.054 109.33"/><polyline fill="none" stroke="#9857bd" stroke-miterlimit="10" points="333.054 109.33 315.752 157.818 321.092 172.129"/><line x1="298.45" x2="333.054" y1="157.604" y2="157.604" fill="none" stroke="#9857bd" stroke-miterlimit="10"/><polygon fill="none" stroke="#9857bd" stroke-miterlimit="10" points="333.054 109.33 367.657 157.604 355.055 172.129 333.054 172.129 333.054 109.33"/><polyline fill="none" stroke="#9857bd" stroke-miterlimit="10" points="333.054 109.33 350.356 157.818 345.016 172.129"/><line x1="367.657" x2="333.054" y1="157.604" y2="157.604" fill="none" stroke="#9857bd" stroke-miterlimit="10"/><line x1="325.62" x2="340.488" y1=".5" y2=".5" fill="none" stroke="#9857bd" stroke-miterlimit="10"/><path fill="#160b07" d="M251.42921,239.88608c.21627-5.55067-.671-13.28982-5.60256-22.74114a32.77772,32.77772,0,0,0-12.521-5.622c1.51517-.69746,2.76319-1.19578,3.87429-1.84846,7.38112-4.33565,12.55868-17.76349,7.57025-25.668-4.34766-6.88923-14.84256-7.08731-17.39591-7.13564a19.02938,19.02938,0,0,0-16.71951,8.079,21.69116,21.69116,0,0,0-3.869,10.9465c-.38181,3.89881-.1866,4.16554-2.13664,8.662-2.159,4.97823-4.14992,7.20611-4.40922,11.68783-.16411,2.83811,1.68785,6.5406,3.22951,9.17625-3.25934,7.30038-2.57936,14.84214-2.39883,16.831.7774,8.5621,4.99945,17.364,6.11375,19.68705,2.4882,5.18745,4.79923,8.33808,4.40463,13.27659-.35045,4.38667-2.46063,5.4879-3.639,9.44707-2.19411,7.372.90391,17.72541,7.40427,22.07665,10.65959,7.13544,29.52592-2.50045,32.96249-13.62921,2.31485-7.49649-4.11508-10.02444-4.42642-22.438C243.53335,257.24057,250.89629,253.56476,251.42921,239.88608Z"/><path fill="#f9977a" d="M212.36241 212.27526l2.39666-2.20693a1.33643 1.33643 0 012.345.72177 16.122 16.122 0 01-.346 5.34724l-.8221 4.08233zM269.84088 240.35818l-5.09459-21.781s-19.24859.17915-19.69126-9.779L228.57282 207.73l2.296 7.919a5.19347 5.19347 0 01-2.15524 5.79917l-9.09964 5.92189a26.18308 26.18308 0 00-9.54658 11.093l-13.073 28.70557 12.124 5.35585s11.88067-19.99538 13.4694-19.92189c0 0 6.30883 14.8297-.93232 25.98336.31136-.08707 10.415 7.20542 21.84591 8.56323 10.09674 1.19918 23.11824-2.56226 23.11824-2.56226S275.66 255.2296 269.84088 240.35818zM295.5925 399.16437s-.9594 9.97093 24.17954 19.9137a1.31333 1.31333 0 01.86319 1.16981c.00992 1.31392-2.03914 3.12863-16.6318-.43582a92.77109 92.77109 0 00-21.50219-2.64159h0a3.80024 3.80024 0 01-3.83682-4.43615l1.89279-13.51365z"/><path fill="#5d1115" d="M278.04735,415.04484a1.06985,1.06985,0,0,1,1.31277-.73239A192.09815,192.09815,0,0,0,302.2194,419.305a13.599,13.599,0,0,1,3.78706-5.13864,2.87073,2.87073,0,0,1,3.08536-.34211l5.71777,2.84a.46932.46932,0,0,1-.029.85234,3.44414,3.44414,0,0,0-1.76247,2.75792,23.98636,23.98636,0,0,0,6.7903-.53542,1.0691,1.0691,0,0,1,1.35746.636,1.04883,1.04883,0,0,1-.64152,1.34733,21.59176,21.59176,0,0,1-6.45839.68482c-5.038.01886-13.44145-.71789-26.60766-3.84184l.01378,3.679-9.014-.66159S277.9261,415.47535,278.04735,415.04484Z"/><path fill="#f9977a" d="M357.96391,368.553s2.59332,10.11966,30.77416,10.96083a1.36966,1.36966,0,0,1,1.26128.84139c.47546,1.28519-.891,3.79139-16.46711,5.46788a96.75039,96.75039,0,0,0-22.0259,5.03081h0a3.96326,3.96326,0,0,1-5.33564-2.991l-2.9336-13.92524Z"/><path fill="#5d1115" d="M346.38447,390.34777a1.11573,1.11573,0,0,1,1.028-1.18366,200.33972,200.33972,0,0,0,24.19028-3.206,14.18227,14.18227,0,0,1,1.89294-6.3824,2.99387,2.99387,0,0,1,2.90488-1.4292l6.61473.75882a.48945.48945,0,0,1,.27366.84627,3.59188,3.59188,0,0,0-.75108,3.32972c4.73534-1.62151,6.41214-2.88684,6.47021-2.93205a1.115,1.115,0,0,1,1.55685.14264,1.09381,1.09381,0,0,1-.15163,1.54887c-.1425.11776-1.7163,1.36112-6.09171,2.96093-4.93463,1.80428-13.438,4.06036-27.45883,5.66328l1.31756,3.60347-9.07549,2.54622S346.41815,390.813,346.38447,390.34777Z"/><path fill="#c67a56" d="M368.11366,361.98953l-30.512-57.32781a25.44839,25.44839,0,0,0-16.40549-12.75286c-11.11663-2.7307-28.6851-6.47118-44.13691-7.23879,0,0-36.96173,2.11214-55.167-6.45974,0,0-20.64961,37.40674,5.52443,56.41273,0,0,12.12882,9.80461,40.92768,2.79a18.14417,18.14417,0,0,1,6.29669-.48691c4.78493.53378,11.66856,3.16531,11.22491,13.95872,0,0-.20325,26.38783-9.63582,59.82885a1.309,1.309,0,0,0,.77052,1.57666l.14027.0555a46.40864,46.40864,0,0,0,44.15433-5.46613l13.39367-9.62421s29.55933-22.22,33.61729-32.55005A3.2601,3.2601,0,0,0,368.11366,361.98953Z"/><path fill="#ffba55" d="M219.39353,227.68247a26.18267,26.18267,0,0,0-9.54657,11.093L200.1138,260.3191s5.63542,15.352,6.60181,14.77365c3.89636-2.33173,14.06294-22.2512,15.65174-22.17769Z"/><path fill="#f9977a" d="M261.77067,218.78038s1.10116.06557,2.75516.10907c3.54758.09332,8.76275,6.4517,15.91576,20.00537l4.75344,9.00691s12.40568-17.57956,20.10072-23.04286l8.53008,5.429-18.938,28.84174a15.98747,15.98747,0,0,1-5.13192,5.54256c-4.87089,3.151-10.207,2.821-13.63323-2.22568-5.35951-7.89432-12.016-20.0673-12.89043-23.5593Z"/><path fill="#ffba55" d="M261.77067,218.78038s1.10116.06557,2.75516.10907c3.54758.09332,8.76275,6.4517,15.91576,20.00537l4.75344,9.00691s6.7026,15.3849,4.56083,16.77043c-4.87089,3.151-10.207,2.821-13.63323-2.22568-5.35951-7.89432-12.016-20.0673-12.89043-23.5593Z"/><path fill="#f9977a" d="M304.38765,225.66872s1.3865-3.24693,8.44956-6.52544,12.97094-5.10579,8.65088-1.71909l-3.33476,2.52626s6.26064-.02845,9.98884-.37205a4.63623,4.63623,0,0,1,4.76118,2.78645c.69436,1.72732.12546,3.10745-4.08142,4.33338a44.48389,44.48389,0,0,1-12.11431,2.059,2.64124,2.64124,0,0,0-1.613.55361l-1.26881.97706Z"/><path fill="#dd765e" d="M314.37539 220.27039a6.47305 6.47305 0 011.86362-.44336 5.67931 5.67931 0 011.91433.12354 9.90889 9.90889 0 01-1.87109.35107A8.38 8.38 0 01314.37539 220.27039zM322.29256 222.14173c1.53269-.31714 3.06855-.50562 4.59171-.7793.76584-.10693 1.526-.24536 2.28488-.38623.75964-.14062 1.51471-.29614 2.27374-.4873a10.75941 10.75941 0 01-2.19052.84472c-.75372.21778-1.52453.35425-2.29211.49927A24.64917 24.64917 0 01322.29256 222.14173zM323.00344 224.33851c1.69684-.22144 3.38559-.35547 5.05276-.63379a22.61874 22.61874 0 002.481-.47 8.76568 8.76568 0 002.36618-.86988 6.05431 6.05431 0 01-2.26361 1.22242 16.44791 16.44791 0 01-2.5119.58862c-.85165.10718-1.7034.207-2.55948.23047A19.02237 19.02237 0 01323.00344 224.33851zM324.15472 226.22278c1.41778-.20776 2.82281-.33276 4.21722-.55737.70132-.0813 1.39273-.21509 2.0882-.33472.69482-.126 1.38147-.2832 2.08325-.43676a12.95384 12.95384 0 01-4.10337 1.24316A17.15225 17.15225 0 01324.15472 226.22278zM244.8346 209.11056s-4.08535 5.22716-11.347 2.16471c0 0 4.31413 7.737 13.63129 2.74037A6.14052 6.14052 0 01244.8346 209.11056z"/><path fill="#f9977a" d="M244.88287,189.2676c-4.63307-8.96012-13.35273-13.657-19.47593-10.49086-4.726,2.44373-6.52053,8.8579-4.96474,15.77732a1.92676,1.92676,0,0,0-1.6221.21587c-1.26267.925-.79261,3.71372,1.04989,6.22878,1.55559,2.12351,3.58941,3.36688,4.94581,3.14778,4.85651,6.67771,12.08019,9.81226,17.36894,7.07761C248.30793,208.0579,249.51593,198.22767,244.88287,189.2676Z"/><path fill="#dd765e" d="M285.0859 247.84217a10.075 10.075 0 011.522 1.61035 11.1756 11.1756 0 011.17545 1.89624 7.26486 7.26486 0 01.64831 2.15332 4.084 4.084 0 01-.318 2.20068 6.66385 6.66385 0 00-.76105-4.15014 14.67188 14.67188 0 00-1.04455-1.89136C285.92361 249.04627 285.5122 248.44446 285.0859 247.84217zM236.83884 190.71961a6.39878 6.39878 0 001.257 3.2356 14.24487 14.24487 0 002.32022 2.62426l.69164.56079a1.389 1.389 0 01.54185.86792 2.27446 2.27446 0 01-.63328 1.79615 4.10443 4.10443 0 01-3.38033 1.10986 4.40383 4.40383 0 003.09795-1.34448 2.04121 2.04121 0 00.48848-1.48365c-.05475-.47753-.65552-.73291-1.1124-1.14135a12.98232 12.98232 0 01-2.31435-2.7815A5.61492 5.61492 0 01236.83884 190.71961z"/><path fill="#160b07" d="M227.35718 195.96011a.47689.47689 0 01-.45465-.67472c.07648-.168 1.9208-4.11414 5.82745-4.51587a.477.477 0 11.09769.949c-3.36925.3466-5.04071 3.92682-5.05729 3.963A.47709.47709 0 01227.35718 195.96011zM238.44593 189.14841a.47714.47714 0 01-.30594-.86 9.20571 9.20571 0 015.52339-1.66153.47706.47706 0 01-.05981.95225 8.32667 8.32667 0 00-4.895 1.47595A.47739.47739 0 01238.44593 189.14841zM228.896 197.69227a5.31237 5.31237 0 01.93053-1.60767 5.39116 5.39116 0 011.4483-1.21851 3.819 3.819 0 011.85726-.4458 3.70741 3.70741 0 011.78863.53 5.73037 5.73037 0 00-1.77847-.16308 3.8977 3.8977 0 00-1.64192.49853 6.10221 6.10221 0 00-1.40578 1.04712A11.59088 11.59088 0 00228.896 197.69227z"/><circle cx="232.794" cy="195.678" r="1.07" fill="#160b07"/><path fill="#160b07" d="M239.11309,193.70374a5.31416,5.31416,0,0,1,.93053-1.60742,5.396,5.396,0,0,1,1.4483-1.21875,3.82143,3.82143,0,0,1,1.85725-.44556,3.70725,3.70725,0,0,1,1.78865.52979,5.73747,5.73747,0,0,0-1.77848-.16284,3.89418,3.89418,0,0,0-1.64193.49853,6.10209,6.10209,0,0,0-1.40577,1.04712A11.58824,11.58824,0,0,0,239.11309,193.70374Z"/><circle cx="243.011" cy="191.69" r="1.07" fill="#160b07"/><path fill="#dd765e" d="M219.587,198.10608a2.40783,2.40783,0,0,1,.1475-1.29394,1.081,1.081,0,0,1,.48354-.55274,1.01152,1.01152,0,0,1,.76392-.08691,2.65385,2.65385,0,0,1,1.11991.74634,4.78171,4.78171,0,0,1,.74541,1.04223c-.35657-.24462-.65555-.53271-.989-.76782a2.82392,2.82392,0,0,0-.99052-.5581.661.661,0,0,0-.81174.35058A4.66205,4.66205,0,0,0,219.587,198.10608Z"/><path fill="#dd765e" d="M222.15429,200.7428a5.041,5.041,0,0,0-.1902-1.15088,7.115,7.115,0,0,0-.377-1.082c-.26153-.72436-.64836-1.39428-.95825-2.148a4.977,4.977,0,0,1,.81423.89991,6.44162,6.44162,0,0,1,.58648,1.071A3.24164,3.24164,0,0,1,222.15429,200.7428Z"/><circle cx="222.352" cy="203.435" r="2.124" fill="#ffcb33"/><path fill="#dd2f22" d="M235.68549,205.38525s6.751,1.96413,8.87506-2.93748"/><path fill="#ffba55" d="M224.964,269.95774c1.32843-8.839-2.59665-17.04307-2.59665-17.04307-1.58881-.07256-2.97474-25.23262-2.97474-25.23262l9.10237-5.921c1.91687-1.25051,10.78368,11.538,14.48212,10.66667,3.86089-.90965,4.475-18.04759,5.284-17.46744.16278.11706.335.22881.50707.34055,5.7466,3.67978,15.75769,3.58829,15.75769,3.58829l5.09458,21.78078c3.66431,7.88035,2.03563,21.41219,1.57592,24.64365a.95225.95225,0,0,1-.81021.80813C264.56365,266.9469,224.57854,272.52243,224.964,269.95774Z"/><path fill="#e6952a" d="M225.611,252.14045c5.88523,5.011,16.31431,2.25494,18.19736-1.72592"/><path fill="#d3a124" d="M249.944,248.52064s11.73753,6.9451,17.35808-5.85588"/><path fill="#c67a56" d="M230.6218,267.7117s19.86055-52.16151,27.4369-51.19771c0,0,6.12862-1.025,8.15208,1.6021s1.33207,50.84474-5.76048,68.58221c-5.88733,14.72342-40.31877-5.41113-40.31877-5.41113A35.03783,35.03783,0,0,0,230.6218,267.7117Z"/><circle cx="235.524" cy="188.537" r="1.028" fill="#dd2f22"/><line x1="231.113" x2="232.295" y1="178.617" y2="180.279" fill="none" stroke="#dd2f22" stroke-linecap="round" stroke-linejoin="round" stroke-width="1.431"/><circle cx="244.663" cy="240.206" r=".845" fill="#160b07"/><circle cx="246.353" cy="240.073" r=".845" fill="#160b07"/><circle cx="245.602" cy="241.01" r=".644" fill="#dd2f22"/><path fill="#160b07" d="M229.99667 220.83134a.24793.24793 0 01-.06368-.00557.23888.23888 0 01-.17989-.28536c.03237-.14276.06275-.29336.08955-.45639a.2386.2386 0 11.4708.07795c-.02871.17244-.06055.33243-.09487.48367A.23869.23869 0 01229.99667 220.83134zM245.13858 240.60934a.23863.23863 0 01-.02934-.47628 3.28485 3.28485 0 00.86529-.18632.2385.2385 0 11.164.44792 3.75816 3.75816 0 01-.99137.2143zm-.9494-.03242a.27115.27115 0 01-.04322-.0018 6.48113 6.48113 0 01-.96491-.21363.23872.23872 0 01.13637-.45754 5.96586 5.96586 0 00.89333.19815.23865.23865 0 01-.02157.47482zm2.7274-.5951a.23839.23839 0 01-.13666-.44073 6.45851 6.45851 0 00.74085-.54085.23858.23858 0 01.30726.36506 6.84545 6.84545 0 01-.79645.58063A.2344.2344 0 01246.91658 239.98182zm-4.55329.06669a.236.236 0 01-.10176-.01786c-.27679-.115-.56482-.24681-.8808-.40393a.23859.23859 0 11.21234-.42733c.30618.152.58448.28.85127.39031a.2386.2386 0 01-.08105.45881zm-1.70936-.83955a.23647.23647 0 01-.12536-.02941c-.26845-.14758-.53086-.29589-.78585-.43986l.06931-.23488.12338-.20417-.12171.205.13009-.20028c.287.16214.54779.30959.81479.4563a.2386.2386 0 01-.10465.44727zm7.72208-.44262a.23857.23857 0 01-.18392-.40226c.20468-.21664.40845-.45377.60576-.70507a.23841.23841 0 11.37546.29393c-.20634.26336-.41985.51212-.63457.739A.2384.2384 0 01248.376 238.76634zm-9.37161-.5148a.23672.23672 0 01-.13855-.03721c-.2419-.15389-.51146-.33173-.80214-.53382a.23866.23866 0 11.27268-.39177c.28494.19861.5487.37205.78583.52335a.23855.23855 0 01-.11782.43945zm10.55-.97922a.23474.23474 0 01-.1431-.04028.23834.23834 0 01-.06532-.331q.25422-.37929.49729-.79493a.23858.23858 0 11.41181.241q-.251.42882-.513.81988A.23813.23813 0 01249.55441 237.27232zm-12.11468-.10976a.23828.23828 0 01-.15442-.04817q-.36561-.27687-.7551-.59794a.23851.23851 0 11.30359-.36795c.2537.20932.50117.40447.73962.58556a.23856.23856 0 01-.13369.4285zM250.518 235.6302a.23856.23856 0 01-.22231-.34784q.19968-.38667.3915-.79816l.02108-.04524a.23859.23859 0 01.43586.19423l-.02511.05429q-.19515.41793-.39943.8139A.23814.23814 0 01250.518 235.6302zm-14.54775.31835a.23883.23883 0 01-.1699-.06054q-.3483-.31263-.70343-.65806a.2385.2385 0 01.33323-.3413q.347.33787.68881.6438a.23856.23856 0 01-.14871.4161zm15.33942-2.0503a.23851.23851 0 01-.23248-.325q.17365-.445.31426-.88333a.23853.23853 0 01.45422.14584q-.14532.45281-.32423.91083A.238.238 0 01251.30966 233.89825zm-16.70358.71921a.2378.2378 0 01-.18452-.07481q-.32313-.34454-.6442-.71574a.23854.23854 0 01.36113-.31175q.31385.36382.63093.70047a.23882.23882 0 01-.16334.40183zm-1.24275-1.44329a.23767.23767 0 01-.1983-.091q-.29324-.37243-.57787-.77138a.23838.23838 0 11.38834-.27658q.27754.38922.56448.75332a.23846.23846 0 01-.17665.38564zm18.52734-1.08852a.24614.24614 0 01-.06839-.00676.23858.23858 0 01-.17354-.28938q.11522-.46125.19738-.91592a.2385.2385 0 01.46927.08548c-.05691.31455-.12553.63335-.204.94606A.23857.23857 0 01251.89067 232.08565zm-19.63286-.46255a.23845.23845 0 01-.21146-.10907q-.25738-.39991-.50162-.82375a.2384.2384 0 11.4134-.23758q.23766.4127.48949.80283a.2385.2385 0 01-.07163.32967A.23357.23357 0 01232.25781 231.6231zm19.97236-1.41114a.26226.26226 0 01-.03783-.00112.23872.23872 0 01-.20995-.264q.05325-.47038.0746-.93424a.24334.24334 0 01.24946-.227.239.239 0 01.22728.24968c-.01511.32109-.041.64592-.07743.96516A.23867.23867 0 01252.23017 230.212zm-20.9228-.23964a.23848.23848 0 01-.2231-.12953q-.2172-.4241-.41714-.86948a.23863.23863 0 01.43532-.19565q.19455.43419.40636.84757a.23839.23839 0 01-.20144.34709zm21.01363-1.66218l-.007.00031a.23891.23891 0 01-.24246-.23454q-.00358-.22232-.01333-.44156c-.00739-.16617-.01754-.33176-.03-.49585a.23888.23888 0 01.22019-.256.25821.25821 0 01.2558.22q.019.2545.03063.51074c.00671.15082.01136.30266.01391.45459A.23871.23871 0 01252.321 228.31014zm-21.79279-.075a.23825.23825 0 01-.233-.15195q-.17257-.44356-.32557-.90807a.23854.23854 0 11.45326-.14887q.1488.45162.317.88419a.23858.23858 0 01-.136.30874A.24328.24328 0 01230.52821 228.23511zm21.64984-1.82385a.23843.23843 0 01-.24684-.2073q-.06174-.46809-.14648-.92909a.23847.23847 0 01.4691-.08615q.08681.47328.15034.95317a.23817.23817 0 01-.20545.26752zm-22.24579.01646a.23839.23839 0 01-.24053-.1754q-.12537-.45966-.22982-.93657a.23854.23854 0 11.46607-.10187q.10146.46491.22409.91257a.23851.23851 0 01-.16748.29288A.22633.22633 0 01229.93226 226.42772zm21.90435-1.8902a.23855.23855 0 01-.24283-.18509q-.1062-.4612-.22979-.91465a.23852.23852 0 11.46038-.12494q.12547.46175.23434.9331a.23858.23858 0 01-.179.28593A.27665.27665 0 01251.83661 224.53752zm-22.30818.0295a.23825.23825 0 01-.24619-.20313 8.01356 8.01356 0 01-.08487-.839l-.00452-.13832a.24848.24848 0 01.23308-.244.23863.23863 0 01.244.23308l.00412.12947a7.58154 7.58154 0 00.07982.7884.23817.23817 0 01-.20039.271zm21.81058-1.86971a.23854.23854 0 01-.23834-.168q-.13985-.45483-.29054-.9017a.23854.23854 0 01.45218-.15209q.15235.45287.29431.91319a.2388.2388 0 01-.1579.29852A.2427.2427 0 01251.339 222.69731zm-21.82933-.0263a.24387.24387 0 01-.05169-.0033.23858.23858 0 01-.19415-.27587 7.84816 7.84816 0 01.2404-.95.23865.23865 0 01.45711.13733 7.48872 7.48872 0 00-.22748.8944A.23865.23865 0 01229.50968 222.671zm21.22364-1.77972a.23864.23864 0 01-.23508-.15792q-.16167-.44965-.32783-.89071a.2387.2387 0 01.44679-.16817q.16668.44453.33.89807a.23826.23826 0 01-.14386.30489A.23294.23294 0 01250.73332 220.89129zm-.66633-1.7856a.23885.23885 0 01-.23349-.15333l-.33993-.89017a.23855.23855 0 01.44578-.17l.33993.89016a.23857.23857 0 01-.13789.30789A.23394.23394 0 01250.067 219.10569zm-.67434-1.782a.23885.23885 0 01-.23455-.15608q-.16787-.45567-.32178-.90171a.23854.23854 0 01.4511-.1553q.1515.4417.31858.89251a.23867.23867 0 01-.14147.30619A.24473.24473 0 01249.39265 217.32371zM248.833 215.50188a.245.245 0 01-.05677.01208.23963.23963 0 01-.24162-.17092c-.04515-.1554-.09-.30638-.13515-.462a.22722.22722 0 01.03441-.19252c.16278.11706.335.2288.50707.34055.017.06128.03387.11789.05093.17917A.23276.23276 0 01248.833 215.50188z"/><path fill="#f9dd95" d="M217.51673,198.543a2.25793,2.25793,0,0,0-3.78527-1.57326,2.2605,2.2605,0,0,0-3.889-1.40168c.00112-.05089.01073-.09959.00844-.151a2.27,2.27,0,1,0-4.44664.71864,2.25945,2.25945,0,0,0-2.762,3.08511c-.05546-.0015-.10885-.01172-.16529-.00921a2.27011,2.27011,0,1,0,1.62209,3.93869,2.25081,2.25081,0,0,0,3.58878.49995,2.26287,2.26287,0,0,0,4.00663-1.54675,2.26994,2.26994,0,1,0,4.5354-.20162,2.24408,2.24408,0,0,0-.34443-1.08562A2.2658,2.2658,0,0,0,217.51673,198.543Z"/><circle cx="202.275" cy="201.734" r=".582" fill="#f4906e"/><circle cx="204.575" cy="198.029" r=".582" fill="#f4906e"/><circle cx="206.076" cy="202.148" r=".582" fill="#f4906e"/><circle cx="204.34" cy="200.478" r=".582" fill="#f4906e"/><circle cx="207.072" cy="198.342" r=".582" fill="#f4906e"/><circle cx="207.518" cy="195.285" r=".582" fill="#f4906e"/><circle cx="211.689" cy="197.13" r=".582" fill="#f4906e"/><circle cx="209.682" cy="198.384" r=".582" fill="#f4906e"/><circle cx="208.338" cy="200.622" r=".582" fill="#f4906e"/><circle cx="209.59" cy="202.574" r=".582" fill="#f4906e"/><circle cx="211.242" cy="200.171" r=".582" fill="#f4906e"/><circle cx="214.034" cy="202.377" r=".582" fill="#f4906e"/><circle cx="215.411" cy="198.554" r=".582" fill="#f4906e"/><circle cx="213.93" cy="200.051" r=".582" fill="#f4906e"/><circle cx="238.553" cy="200.466" r="1.028" fill="#ffcb33"/><path fill="#160b07" d="M230.94,178.88926c-1.33177.74808-1.81147,2.06809-2.77088,4.708-1.85324,5.09956-2.01106,11.43385-3.83215,13.06535a1.3556,1.3556,0,0,1-.72831.37623c-.86111.11366-1.49806-.86265-2.84468-2.1087-1.01765-.94167-1.37541-1.05175-1.96128-1.57483a9.56869,9.56869,0,0,1-2.771-8.18688,10.138,10.138,0,0,1,4.02033-6.25374c4.23065-3.4286,9.39615-2.94761,10.70618-2.82564,7.87047.73288,12.89008,6.89479,12.698,7.1725C243.23055,183.588,235.37879,176.396,230.94,178.88926Z"/><circle cx="261.823" cy="312.484" r="3.162" fill="#ffba55"/><circle cx="270.518" cy="294.392" r="3.162" fill="#ffba55"/><circle cx="282.688" cy="315.582" r="3.162" fill="#ffba55"/><circle cx="242.465" cy="319.511" r="3.162" fill="#ffba55"/><circle cx="223.277" cy="296.492" r="3.162" fill="#ffba55"/><circle cx="240.244" cy="283.579" r="3.162" fill="#ffba55"/><circle cx="242.349" cy="302.865" r="3.162" fill="#ffba55"/><circle cx="238.715" cy="268.71" r="3.162" fill="#ffba55"/><circle cx="257.198" cy="279.66" r="3.162" fill="#ffba55"/><circle cx="253.618" cy="253.977" r="3.162" fill="#ffba55"/><circle cx="261.484" cy="233.655" r="3.162" fill="#ffba55"/><circle cx="287.55" cy="298.015" r="3.162" fill="#ffba55"/><circle cx="302.924" cy="307.734" r="3.162" fill="#ffba55"/><circle cx="305.427" cy="292.84" r="3.162" fill="#ffba55"/><circle cx="319.884" cy="309.678" r="3.162" fill="#ffba55"/><circle cx="335.894" cy="315.358" r="3.162" fill="#ffba55"/><circle cx="327.161" cy="326.411" r="3.162" fill="#ffba55"/><circle cx="333.751" cy="348.505" r="3.162" fill="#ffba55"/><circle cx="342.119" cy="334.312" r="3.162" fill="#ffba55"/><circle cx="356.331" cy="350.667" r="3.162" fill="#ffba55"/><circle cx="337.898" cy="370.589" r="3.162" fill="#ffba55"/><circle cx="352.118" cy="371.978" r="3.162" fill="#ffba55"/><circle cx="330.077" cy="392.003" r="3.162" fill="#ffba55"/><circle cx="316.109" cy="380.789" r="3.162" fill="#ffba55"/><circle cx="321.034" cy="364.8" r="3.162" fill="#ffba55"/><circle cx="307.995" cy="350.605" r="3.162" fill="#ffba55"/><path fill="#ffba55" d="M297.9318,315.89591a3.06375,3.06375,0,0,1,.27033,1.139,3.16232,3.16232,0,0,1-6.3099.40945Z"/><circle cx="290.848" cy="338.937" r="3.162" fill="#ffba55"/><path fill="#ffba55" d="M314.65964,321.43264a2.97894,2.97894,0,0,0-.72355-.0538,3.16093,3.16093,0,1,0,2.96353,4.56777Z"/><circle cx="288.979" cy="385.889" r="3.162" fill="#ffba55"/><circle cx="307.25" cy="405.051" r="3.162" fill="#ffba55"/><circle cx="290.795" cy="408.948" r="3.162" fill="#ffba55"/><circle cx="300.624" cy="371.528" r="3.162" fill="#ffba55"/><circle cx="290.34" cy="360.771" r="3.162" fill="#ffba55"/><path fill="#b7694b" d="M327.35229 308.07337c-1.33237-.68945-2.56168-1.44458-3.76828-2.21655l-3.57581-2.30445c-1.1842-.75659-2.35019-1.53442-3.56351-2.2207a29.22219 29.22219 0 00-3.83178-1.89722 9.00912 9.00912 0 014.46624.47119 17.18877 17.18877 0 014.01581 1.96851 22.06377 22.06377 0 013.45432 2.76392A16.79232 16.79232 0 01327.35229 308.07337zM332.54745 305.85657c-2.41513-.98657-4.50882-2.20166-6.65686-3.29394-1.07056-.5376-2.12433-1.106-3.2186-1.57056a26.57953 26.57953 0 00-3.464-1.2666 7.43968 7.43968 0 013.91684-.2395 13.0562 13.0562 0 013.68616 1.30175 16.40258 16.40258 0 013.18924 2.1648A12.69554 12.69554 0 01332.54745 305.85657zM352.8402 348.61121a18.882 18.882 0 01-1.60608 3.75391 29.93839 29.93839 0 01-2.15637 3.40478 25.99661 25.99661 0 01-2.64233 3.06909 10.79964 10.79964 0 01-3.35309 2.40162l2.14511-3.38965c.71551-1.11206 1.45-2.207 2.24-3.26636q1.17-1.60107 2.48981-3.10645A24.12578 24.12578 0 01352.8402 348.61121zM353.2564 357.974a17.64448 17.64448 0 01-2.13943 3.63257 26.38847 26.38847 0 01-2.735 3.15772 23.34119 23.34119 0 01-3.24033 2.668 13.31745 13.31745 0 01-3.81213 1.8601c.93753-1.08862 1.86252-2.0769 2.80692-3.05395.93972-.979 1.87045-1.96 2.84469-2.90064.96665-.949 1.95947-1.87768 2.98972-2.78173A30.99491 30.99491 0 01353.2564 357.974zM235.538 327.36292c1.74879-.352 3.4705-.57373 5.18772-.76758l5.11716-.55517c1.69747-.17749 3.37955-.36866 5.04991-.62256a17.66449 17.66449 0 004.92053-1.32666 9.26653 9.26653 0 01-4.54086 2.84057 24.32836 24.32836 0 01-5.2203 1.09693 34.11387 34.11387 0 01-5.281.12085A24.84248 24.84248 0 01235.538 327.36292zM245.4343 329.25086a12.15945 12.15945 0 012.63326-.78687 21.08343 21.08343 0 012.59656-.32348c.86132-.06177 1.718-.074 2.58044-.053.87143.01074 1.69461.08838 2.65686.05933a4.94315 4.94315 0 01-2.41745 1.49487 11.516 11.516 0 01-2.68808.49389 13.29181 13.29181 0 01-2.69684-.10473A9.0492 9.0492 0 01245.4343 329.25086zM321.9952 349.028c1.38461 3.78564 2.67047 7.5813 3.95346 11.37353 1.2984 3.78614 2.55628 7.57935 3.91058 11.33155 1.322 3.76269 2.72059 7.49463 4.281 11.1438a54.70771 54.70771 0 002.59589 5.33984 12.73576 12.73576 0 003.74109 4.52588 11.25445 11.25445 0 01-4.563-3.98853 38.97671 38.97671 0 01-3.18219-5.20434 88.687 88.687 0 01-4.75632-11.14771c-1.33139-3.80664-2.51773-7.65674-3.51678-11.55566A111.861 111.861 0 01321.9952 349.028zM228.31382 312.942a27.173 27.173 0 0010.61992-2.39966 32.85478 32.85478 0 008.93556-5.968l1.95232-1.87647 1.76312-2.06836.89725-1.0249.79229-1.11157c.5228-.74585 1.0611-1.48243 1.60727-2.21729.539-.73974.95175-1.562 1.4523-2.33227l1.456-2.34986c.85757-1.63159 1.7139-3.2727 2.66046-4.89526-.53262 1.78369-1.15546 3.54907-1.77707 5.32422-.79248 1.69385-1.55508 3.42187-2.464 5.07348-.49017.80591-.98819 1.61011-1.50171 2.40528l-.76645 1.19629-.88083 1.11914q-.88879 1.11438-1.80475 2.209l-2.03089 2.01782a28.43109 28.43109 0 01-9.72332 5.94629A20.87644 20.87644 0 01228.31382 312.942zM298.97546 316.99891q2.32 10.47216 3.91394 21.083 1.64594 10.59705 2.66775 21.28589c.64652 7.12525 1.12253 14.27857 1.08258 21.45508a94.59266 94.59266 0 01-.603 10.75537 42.264 42.264 0 01-1.00817 5.30811 11.683 11.683 0 01-2.28632 4.84765 8.03918 8.03918 0 001.13687-2.39257 17.99054 17.99054 0 00.63236-2.57154 41.53746 41.53746 0 00.54876-5.27929c.19388-3.53956.13089-7.09424.019-10.64429-.27673-7.1023-.83371-14.20191-1.51208-21.29175-.64835-7.09351-1.44009-14.178-2.2189-21.26807zM306.48653 315.71375c.948 4.10791 1.73145 8.23267 2.46784 12.36279.75006 4.12793 1.40805 8.26709 2.08377 12.40137l1.92 12.41284c.32977 2.06568.64295 4.13428 1.01346 6.19019.173 1.03076.37515 2.05468.59936 3.07251.113.50854.23554 1.01562.3909 1.5105a3.07456 3.07456 0 00.67951 1.37622 3.19258 3.19258 0 01-.95938-1.26246c-.24185-.47631-.44443-.968-.641-1.46142-.388-.98877-.7085-1.9978-1.02448-3.00684q-.90082-3.03954-1.591-6.124c-.94825-4.10547-1.6839-8.24683-2.36142-12.39429-.63846-4.154-1.21366-8.31567-1.64884-12.49536C306.96914 324.11805 306.61385 319.92859 306.48653 315.71375zM239.90018 281.38416a71.39564 71.39564 0 012.2294-6.90063c.82366-2.26221 1.74971-4.47828 2.67968-6.69141.96241-2.19849 1.945-4.38818 2.99688-6.54663 1.03112-2.17188 2.14774-4.28784 3.24247-6.46a36.79434 36.79434 0 01-1.79792 7.05078c-.76387 2.29419-1.672 4.52637-2.60565 6.74658-.96977 2.20459-1.97615 4.39185-3.0934 6.529A61.71932 61.71932 0 01239.90018 281.38416z"/><path fill="#b7694b" d="M318.81719 337.69373a46.883 46.883 0 00-1.50821-7.86694 28.31051 28.31051 0 00-3.06683-7.21289 13.50226 13.50226 0 00-5.43988-5.09473 11.6025 11.6025 0 00-3.55271-1.01611 17.68253 17.68253 0 00-3.826.00781 35.17673 35.17673 0 00-14.985 4.24512c-4.65176 2.46753-9.102 5.77392-14.24237 7.51806 4.7876-2.50317 8.78857-6.04638 13.47409-8.87671a34.22094 34.22094 0 017.4924-3.4226 35.35471 35.35471 0 018.12494-1.458 15.21528 15.21528 0 018.35168 1.30981 14.55857 14.55857 0 015.941 5.99585 26.27356 26.27356 0 012.67954 7.781A34.8385 34.8385 0 01318.81719 337.69373zM231.801 282.22189c1.26293-3.85052 2.72457-7.61731 4.2639-11.35.75383-1.87368 1.5753-3.717 2.37378-5.57124.81694-1.84571 1.66615-3.67723 2.50909-5.512.87445-1.82 1.74817-3.64077 2.65353-5.447.928-1.79515 1.83546-3.60151 2.82772-5.36593q1.45594-2.66268 3.07387-5.24278c.55308-.85174 1.10844-1.70289 1.71563-2.52182.3065-.4075.61539-.813.95354-1.19789.17068-.19089.347-.37759.53531-.55246a1.83273 1.83273 0 01.63568-.4254 3.64316 3.64316 0 00-.93914 1.14968c-.26436.42381-.50385.86518-.73787 1.3084-.46506.88887-.91627 1.78553-1.34433 2.69515-.87738 1.80735-1.71281 3.63756-2.56392 5.45983l-2.52993 5.48048-2.55437 5.472-2.59857 5.45461c-.89075 1.80725-1.74632 3.63136-2.6591 5.42956C235.62305 275.09705 233.7865 278.69021 231.801 282.22189z"/><path fill="#e6952a" d="M240.15171,265.89447a3.14428,3.14428,0,0,0-1.57668-.34384c-.08634.00384-.17091.01366-.25509.02428-.72185,1.67113-1.455,3.33682-2.14062,5.02371a3.17491,3.17491,0,0,0,1.19327.9728c.01423-.02885.02893-.05749.04327-.08634.91268-1.7982,1.76835-3.62231,2.659-5.42955Z"/><path fill="#b7694b" d="M260.05634,224.11767a148.393,148.393,0,0,1-.19963,20.94785c-.24644,3.49-.65074,6.96847-1.12894,10.43851q-.748,5.20084-1.87824,10.3466c-.78027,3.421-1.69059,6.81812-2.795,10.15765a75.22591,75.22591,0,0,1-3.99814,9.76829,49.25207,49.25207,0,0,1-5.646,8.9246,30.953,30.953,0,0,1-7.81484,6.99568,35.24422,35.24422,0,0,0,7.06752-7.56108,44.35851,44.35851,0,0,0,2.73358-4.3816c.82842-1.50948,1.61284-3.04313,2.31471-4.61694.69908-1.57486,1.34541-3.17279,1.95854-4.78416.6061-1.6141,1.15246-3.2519,1.66482-4.89984q1.54853-4.94118,2.65361-10.01961c.77718-3.37163,1.40336-6.78039,1.95815-10.2016.575-3.41908,1.01449-6.86128,1.43345-10.30864Q259.5689,234.57316,260.05634,224.11767Z"/><path fill="#e6952a" d="M260.28463,236.57785q.07491-2.92992.0322-5.85928a3.14117,3.14117,0,0,0-.67224.36627q-.16737,2.41581-.37137,4.82625A3.16439,3.16439,0,0,0,260.28463,236.57785Z"/><path fill="#f9977a" d="M206.75551,275.35817a3.6644,3.6644,0,0,1-3.96246.31384c-2.84026-1.51134-7.30232-4.7312-6.60686-9.80314,1.45-10.57465,2.065-27.3368,6.35407-36.69884l9.78745.043a111.62,111.62,0,0,0-1.52474,36.16287l.00455.03464a10.71906,10.71906,0,0,1-4.052,9.94765Z"/><path fill="#4f66d0" d="M224.085,219.8879a2.72458,2.72458,0,0,0-3.52288-.84543l-1.91742.97349a2.02839,2.02839,0,0,1-2.70362-.86746L208.73533,205.309a2.58292,2.58292,0,0,1,.40517-2.11587,1.21581,1.21581,0,0,1,2.16312.0727h0a1.21349,1.21349,0,0,0,1.62141.577l.39832-.19063a1.21349,1.21349,0,0,0,.58964-1.577l-1.716-3.96072-.00308.00246a1.92126,1.92126,0,0,0-1.44753-1.35593,4.28119,4.28119,0,0,0-3.0279.26263l-4.209,1.94636a3.04617,3.04617,0,0,0-1.4237,4.17218l11.35405,21.80655a3.18591,3.18591,0,0,0,4.24972,1.379l5.365-2.68A2.61773,2.61773,0,0,0,224.085,219.8879Z"/><path fill="#f9977a" d="M202.39952,229.48553s-2.92423-11.51092-.66027-19.87527a3.57187,3.57187,0,0,1,1.83761-2.27014l2.59632-1.30225a3.53092,3.53092,0,0,1,4.60827,1.33534h0a3.5224,3.5224,0,0,1,.50371,1.93871c-.09239,2.71318-.29156,9.83535.1442,10.31481a12.84093,12.84093,0,0,1,1.98946,5.282,7.236,7.236,0,0,1-1.14867,4.55532Z"/><path fill="#160b07" d="M227.74827 196.74817c.16037.03052.31343.04956.45854.07325a2.51509 2.51509 0 00.42886.03784 2.6652 2.6652 0 00.8683-.11109.91374.91374 0 01-.38263.31275 1.25492 1.25492 0 01-.49609.09521A1.23842 1.23842 0 01227.74827 196.74817zM227.17382 197.63392c.16037.03051.31343.04956.45854.07324a2.51419 2.51419 0 00.42887.03784 2.65876 2.65876 0 00.8683-.11108.91218.91218 0 01-.38263.31274 1.255 1.255 0 01-.4961.09521A1.23845 1.23845 0 01227.17382 197.63392zM243.77422 190.60291c.14379-.07739.27471-.15894.40227-.23218a2.50011 2.50011 0 00.35689-.24072 2.66641 2.66641 0 00.60444-.63306.91119.91119 0 01-.1002.48365 1.259 1.259 0 01-.32529.38671A1.23857 1.23857 0 01243.77422 190.60291zM244.87762 190.90931c.14378-.0774.2747-.15894.40225-.23218a2.49909 2.49909 0 00.3569-.24072 2.662 2.662 0 00.60443-.63306.91233.91233 0 01-.10019.48389 1.258 1.258 0 01-.32528.38647A1.23861 1.23861 0 01244.87762 190.90931z"/><path fill="#edebeb" d="M60.38336,268.45439v-6.89947l5.51957,4.82963s9.65927-4.13969,15.17885.23l7.35943-5.05961-1.60987,8.27936a109.5047,109.5047,0,0,1,1.60987,13.569s36.22224,23.027,34.1524,54.99455c0,0,.04849,4.35585-3.946,11.76486a47.39277,47.39277,0,0,1-7.9707,10.64124,45.57316,45.57316,0,0,0-9.81666,14.8223S95.361,377.7648,98.555,368.223a30.6546,30.6546,0,0,1,7.57822-11.98269c3.73946-3.70577,9.12968-9.99435,11.28576-17.1813H69.58265s1.00618-4.34821,3.337-5.06476c0,0-9.31655-19.31338-11.15641-27.13278s0-22.07832,0-22.07832S57.85355,275.81383,60.38336,268.45439Z"/><path fill="#070707" d="M77.59707 271.973a5.078 5.078 0 01.9791-.80445 5.355 5.355 0 011.07231-.53711 3.435 3.435 0 012.23976-.07714 2.94792 2.94792 0 00-1.742.896 4.17541 4.17541 0 00-.5659.74658 3.2816 3.2816 0 00-.35808.79175 1.00923 1.00923 0 11-1.72627-.90722zM66.70174 272.98865a3.28206 3.28206 0 00-.35809-.79175 4.17536 4.17536 0 00-.56589-.74658 2.948 2.948 0 00-1.742-.896 3.43494 3.43494 0 012.23975.07714 5.35471 5.35471 0 011.07231.53711 5.07829 5.07829 0 01.97911.80445l.098.10522a1.00921 1.00921 0 01-1.47785 1.37476A1.01982 1.01982 0 0166.70174 272.98865z"/><path fill="#e2b5b5" d="M74.5492,276.712a1.44835,1.44835,0,1,1-2.8967,0C71.6525,275.91211,74.5492,275.91211,74.5492,276.712Z"/><polygon fill="#ccc4c4" points="96.951 271.51 80.301 277.59 80.088 276.661 97.641 274.894 80.21 277.611 79.997 276.682 96.951 271.51"/><path fill="#ccc4c4" d="M97.64051,278.16028a71.16394,71.16394,0,0,1-8.77377-.03393,70.30845,70.30845,0,0,1-8.71778-.99024,70.4042,70.4042,0,0,1,8.77376.03418A71.16572,71.16572,0,0,1,97.64051,278.16028Z"/><polygon fill="#ccc4c4" points="48.258 271.51 65.212 276.682 64.999 277.611 47.568 274.894 65.12 276.661 64.907 277.59 48.258 271.51"/><path fill="#ccc4c4" d="M47.56811,278.16028a71.1655,71.1655,0,0,1,8.71779-.99,70.40435,70.40435,0,0,1,8.77377-.03418,70.309,70.309,0,0,1-8.71779.99024A71.16394,71.16394,0,0,1,47.56811,278.16028Z"/><circle cx="74.025" cy="292.144" r="3.094" fill="#eadd65"/><path fill="#ccc4c4" d="M72.57242 306.51648l1.068 7.14649 1.15685 7.11523c.41244 2.36426.86534 4.71875 1.40831 7.04737l.427 1.74.49989 1.7146c.16588.57177.388 1.11865.57957 1.68139.20608.55493.49147 1.06446.73381 1.60352l.12568.27978-.24348.11817a8.19092 8.19092 0 00-2.2841 1.56372 2.81834 2.81834 0 00-.7254 1.158 2.11932 2.11932 0 00.07116 1.37426 2.111 2.111 0 01-.24725-1.41723 3.06307 3.06307 0 01.6558-1.32666 7.34047 7.34047 0 012.28751-1.85645l-.11773.39771a25.236 25.236 0 01-2.64238-6.812q-.88958-3.52808-1.444-7.11426-.56092-3.58082-.88342-7.18872C72.77 311.33948 72.61687 308.93006 72.57242 306.51648zM108.44968 309.33387a18.35623 18.35623 0 00-5.67-3.65918 10.78332 10.78332 0 00-6.52179-.62818 11.86571 11.86571 0 00-5.59069 3.36695 15.86155 15.86155 0 00-3.6334 5.49194 11.76341 11.76341 0 00-.35313 6.46631 18.41731 18.41731 0 002.64179 6.07934 40.62483 40.62483 0 009.26617 9.75733l.86707.66308-1.06128-.21191a12.39218 12.39218 0 00-4.27712-.19824 4.15087 4.15087 0 00-1.96653.7749 2.8403 2.8403 0 00-1.04554 1.82275 2.90366 2.90366 0 01.94519-1.94409 4.36057 4.36057 0 012.01449-.92529 12.24324 12.24324 0 014.43145-.02075l-.19417.45093a38.00952 38.00952 0 01-9.69843-9.70142A19.2982 19.2982 0 0185.77 320.57166a12.09457 12.09457 0 01.4091-6.97632 16.71105 16.71105 0 013.89817-5.77222 12.00386 12.00386 0 016.03882-3.4226 11.00383 11.00383 0 016.82282.89892A17.47383 17.47383 0 01108.44968 309.33387z"/><path fill="#e2b5b5" d="M61.76325,284.78309a21.38453,21.38453,0,0,0,3.16891,1.72265c.54048.25562,1.10234.46436,1.6514.69409.56927.18018,1.1287.385,1.70082.54395a20.33291,20.33291,0,0,0,7.01366.77,11.09226,11.09226,0,0,0,1.75548-.18726,10.58233,10.58233,0,0,0,1.73569-.33276l1.71663-.45,1.65982-.64258.83562-.31738c.26891-.127.52814-.27515.79327-.41187l1.58847-.83667c1.04667-.5852,2.00988-1.30981,3.05819-1.93213-.91093.79053-1.82852,1.59864-2.80551,2.32813l-1.5534.97314c-.2612.15967-.51692.33057-.78369.4812l-.83385.38941c-.55666.25976-1.114.5249-1.68257.76147l-1.77229.53736a10.29776,10.29776,0,0,1-1.81334.37793,11.67336,11.67336,0,0,1-1.842.218,18.07072,18.07072,0,0,1-7.292-1.02661A18.48569,18.48569,0,0,1,61.76325,284.78309Z"/><path fill="#4f66d0" d="M188.57872,338.212H147.20394a3.56972,3.56972,0,0,1-3.0172-5.47745l9.76472-15.44354a3.56972,3.56972,0,0,1,3.0172-1.662H178.814a3.56971,3.56971,0,0,1,3.0172,1.662l9.76472,15.44354A3.56972,3.56972,0,0,1,188.57872,338.212Z"/><circle cx="167.891" cy="326.921" r="6.109" fill="#8795de"/><circle cx="167.891" cy="326.921" r="7.584" fill="none" stroke="#8795de" stroke-dasharray="2.38 2.38" stroke-linecap="round" stroke-linejoin="round"/><path fill="none" stroke="#4f66d0" stroke-linecap="round" stroke-linejoin="round" stroke-width="1.19" d="M181.8312,317.29114q.32483-.45043.68321-.96826"/><path fill="none" stroke="#4f66d0" stroke-dasharray="2.341 2.341" stroke-linecap="round" stroke-linejoin="round" stroke-width="1.19" d="M183.80447,314.37146a57.46613,57.46613,0,0,0,3.99862-7.49414c5.36193-12.145,3.70925-19.98388,6.42546-29.98608,1.57854-5.81226,5.02951-15.67212,14.13611-23.13159,4.07933-3.34155,7.271-6.49976,9.74684-10.73316,4.54633-7.77368,2.80419-10.49536,2.51454-15.10351"/><path fill="none" stroke="#4f66d0" stroke-linecap="round" stroke-linejoin="round" stroke-width="1.19" d="M220.58836,226.7472c.00006-.38086.01239-.77613.04049-1.189"/><line x1="167.891" x2="167.891" y1="315.629" y2="310.947" fill="none" stroke="#4f66d0" stroke-linecap="round" stroke-linejoin="round" stroke-width="2"/><line x1="159.645" x2="176.137" y1="310.947" y2="310.947" fill="none" stroke="#4f66d0" stroke-linecap="round" stroke-linejoin="round" stroke-width="2"/><path fill="#fec165" d="M342.9838,145.898a9.92989,9.92989,0,1,1-19.85977,0c0-5.48412,4.44576-13.07225,9.92989-13.07225S342.9838,140.41383,342.9838,145.898Z"/><path fill="#d77f4a" d="M330.85918,124.09188h4.309a1,1,0,0,1,1,1v8.5947a0,0,0,0,1,0,0h-6.309a0,0,0,0,1,0,0v-8.5947A1,1,0,0,1,330.85918,124.09188Z"/><line x1="333.054" x2="333.054" y1=".5" y2="109.33" fill="none" stroke="#7ca1b1" stroke-miterlimit="10"/><polygon fill="none" stroke="#7ca1b1" stroke-miterlimit="10" points="333.054 109.33 298.45 157.604 311.053 172.129 333.054 172.129 333.054 109.33"/><polyline fill="none" stroke="#7ca1b1" stroke-miterlimit="10" points="333.054 109.33 315.752 157.818 321.092 172.129"/><line x1="298.45" x2="333.054" y1="157.604" y2="157.604" fill="none" stroke="#7ca1b1" stroke-miterlimit="10"/><polygon fill="none" stroke="#7ca1b1" stroke-miterlimit="10" points="333.054 109.33 367.657 157.604 355.055 172.129 333.054 172.129 333.054 109.33"/><polyline fill="none" stroke="#7ca1b1" stroke-miterlimit="10" points="333.054 109.33 350.356 157.818 345.016 172.129"/><line x1="367.657" x2="333.054" y1="157.604" y2="157.604" fill="none" stroke="#7ca1b1" stroke-miterlimit="10"/><line x1="325.62" x2="340.488" y1=".5" y2=".5" fill="none" stroke="#9857bd" stroke-miterlimit="10"/><path fill="#935b50" d="M495.129,424.366h-492a1,1,0,1,1,0-2h492a1,1,0,0,1,0,2Z"/><path fill="#8b9d36" d="M413.38077,330.58825c2.41169,1.87395,6.66064,6.32428,6.77528,9.662,0,0,7.80885-8.49082,5.58874-15.75216a13.56165,13.56165,0,0,0-6.20117-6.24612s3.06212-1.7178,6.27749,2.49854c0,0-1.14821-11.39936-17.03351-7.26133,0,0-6.20116-12.64855-18.48824-.70275,0,0,8.268-1.054,6.66033,1.52257a24.03355,24.03355,0,0,0-8.249,4.16425,8.26519,8.26519,0,0,0-2.77521,5.77116c-.19127,3.08407-.48471,9.18707.11494,9.27173.80369.11708,6.08623-4.68463,9.64613-4.33325s-8.15338,10.89168-8.15338,10.89168,2.41168,9.13512,3.44526,9.01805c1.03327-.11708,4.78475-2.73269,3.25338,0l-2.641,2.10809,3.445,4.76279,8.65086-3.8259s-3.8278-10.46231-.30621-7.61255c0,0,2.67927,3.55268,2.71758,6.20721,0,0,11.579-5.036,10.43081-8.491a77.60649,77.60649,0,0,0-4.37636-9.3367,3.94812,3.94812,0,0,1-.47848-1.65267C411.64568,330.37348,411.87526,329.41705,413.38077,330.58825Zm-1.42265-12.128c1.08467-.74834,3.75148-.26687,4.753,2.17306,1.0719,2.60911,1.027,5.51748-.05731,6.26567-1.08467.74834-4.1661-.22764-4.938-2.75223C410.861,321.33605,410.87377,319.20842,411.95812,318.46024Z"/><path fill="#5e7c24" d="M408.78753,313.48914A42.87616,42.87616,0,0,0,405.37,317.9325a26.03544,26.03544,0,0,0-2.42194,5.01465c-.6311,1.74927-1.13913,3.54346-1.59518,5.35815-.462,1.81592-.90329,3.62989-1.27118,5.46192-.38983,1.82666-.73047,3.66552-1.00943,5.51172-.28723,1.84643-.45249,3.7041-.67938,5.571a31.14575,31.14575,0,0,1-3.30137,10.74072,37.44845,37.44845,0,0,0,1.83371-5.29858,29.87272,29.87272,0,0,0,.97486-5.49463,87.06431,87.06431,0,0,1,1.55163-11.16187c.38938-1.84008.85355-3.665,1.33469-5.47729a44.911,44.911,0,0,1,1.70105-5.38794,26.11067,26.11067,0,0,1,2.62152-5.01245A37.18342,37.18342,0,0,1,408.78753,313.48914Z"/><path fill="#5e7c24" d="M404.27819 319.44056a26.67 26.67 0 00-3.71707 1.07031c-1.2081.43921-2.40216.91553-3.561 1.47241-2.35015 1.04932-4.57931 2.34009-6.854 3.60791.49664-.4209 1.01511-.81445 1.52924-1.217.53827-.36523 1.06829-.74683 1.61932-1.09644a33.554 33.554 0 013.43683-1.87915 28.105 28.105 0 013.68045-1.35791A14.54352 14.54352 0 01404.27819 319.44056zM399.04452 337.55359c-.88965.6897-1.81577 1.2544-2.72022 1.84351q-.67987.43615-1.32794.90112a3.64729 3.64729 0 00-1.099 1.14282 2.3993 2.3993 0 01.76337-1.51708 7.73393 7.73393 0 011.31378-1.06739A9.47349 9.47349 0 01399.04452 337.55359zM400.81817 329.21131a30.5775 30.5775 0 012.92624 3.15625 37.07269 37.07269 0 012.51834 3.50268 24.75888 24.75888 0 011.96585 3.85474 11.735 11.735 0 01.90341 4.2146 16.60908 16.60908 0 00-1.359-4.01953 30.63963 30.63963 0 00-2.05655-3.70972c-.722-1.2207-1.54458-2.3811-2.36465-3.54419C402.52883 331.50428 401.6791 330.35853 400.81817 329.21131z"/><path fill="#8b9d36" d="M390.2227,365.8013l3.21535,2.967s3.1388-3.3183,3.4833-1.015c0,0-.49762,2.30329-1.11006,2.49849,0,0,7.69387,6.18766,9.24412,1.09308a49.14289,49.14289,0,0,1,2.3541-6.67564s1.72251.93693.22967,8.31528c0,0,5.95437-1.74977,8.1655-4.95984a2.29622,2.29622,0,0,0,.38895-1.28082c.02131-1.83518.26318-7.00033,2.35477-5.0611,0,0,1.20575.58559.28708,4.509,0,0,4.84585-5.46307,2.54407-8.82079a3.35733,3.35733,0,0,0-4.11676-1.08625c-1.34571.58416-3.84262,1.66-8.47527,3.6413A92.45576,92.45576,0,0,1,390.2227,365.8013Z"/><path fill="#5e7c24" d="M400.81817 370.32972A18.36058 18.36058 0 01402.401 365.464a11.83173 11.83173 0 011.3595-2.20288 5.2683 5.2683 0 01.93387-.92651 1.9585 1.9585 0 011.2232-.43726 3.51836 3.51836 0 00-1.7493 1.658 22.36155 22.36155 0 00-1.18881 2.19141C402.24026 367.24964 401.58184 368.798 400.81817 370.32972zM411.2756 367.90931a15.27512 15.27512 0 01.40765-4.49878 11.54288 11.54288 0 01.75171-2.15845 3.388 3.388 0 011.52008-1.697 4.612 4.612 0 00-1.05594 1.89038c-.22446.69434-.41724 1.40112-.59009 2.1167C411.96044 364.99573 411.6712 366.44812 411.2756 367.90931zM464.78818 314.722s-7.73215 1.10952-.84212 6.575c0 0 1.76079 1.48348 7.50249 3.20119C471.44855 324.49818 475.04668 308.84978 464.78818 314.722z"/><path fill="#50661a" d="M471.44854,324.49817c-.14316-.51245-.23694-1.02588-.36582-1.53027-.161-.49634-.27725-1.00146-.45343-1.48535a14.3906,14.3906,0,0,0-1.29287-2.77271,10.90108,10.90108,0,0,0-1.9494-2.32666,9.25053,9.25053,0,0,0-2.59885-1.66113,6.54244,6.54244,0,0,1,2.91476,1.27,8.85024,8.85024,0,0,1,2.18027,2.37769,10.77856,10.77856,0,0,1,1.22638,2.9707c.14032.51538.19308,1.05.282,1.57129C471.41759,323.44373,471.44985,323.97181,471.44854,324.49817Z"/><path fill="#5e7c24" d="M454.97523,283.10623s8.5723-5.46149,11.13986,6.66537c0,0-4.44873-3.82925-4.50766-1.61407a16.97932,16.97932,0,0,1,3.227,5.74969,6.29575,6.29575,0,0,1-.6201,4.64846c-1.08966,1.98312-3.29121,5.87839-3.67815,5.702-.51807-.23612-1.75194-5.24253-3.981-6.39195s.54852,9.88543.54852,9.88543-4.97626,4.73832-5.53806,4.26875-1.74836-3.53091-1.91268-1.249l.73143,2.321L446.5041,314.722l-3.59385-5.695s6.32577-5.0174,3.14577-4.60285c0,0-2.95883,1.17374-4.01555,2.80515,0,0-4.84339-7.57015-2.82246-9.27145a57.35656,57.35656,0,0,1,6.1944-4.1011,2.90276,2.90276,0,0,0,1.054-1.02849c.285-.491.34055-1.01439-.85242-.88343-2.14736.23573-6.37838,1.36345-7.74626,3.38909,0,0-1.28141-8.26436,2.85233-11.91423a9.54563,9.54563,0,0,1,6.078-1.49146s-1.13057-2.2413-4.66291-.86187C442.13512,281.06639,447.25111,274.43887,454.97523,283.10623Z"/><path fill="#50661a" d="M458.81682 296.68274c-.69961-1.70532-1.35607-3.395-2.154-5.00659a14.56588 14.56588 0 00-1.387-2.27514 3.53159 3.53159 0 00-2.13544-1.47535 3.11679 3.11679 0 012.51206 1.14234 9.91417 9.91417 0 011.58609 2.31958A16.58662 16.58662 0 01458.81682 296.68274zM441.209 300.76258a12.89229 12.89229 0 011.63864-2.65039 12.31176 12.31176 0 012.22363-2.22193 8.17568 8.17568 0 012.82214-1.44873 5.43528 5.43528 0 013.1247.10132 7.11106 7.11106 0 00-2.97473.37866 9.8829 9.8829 0 00-2.58084 1.48023 17.89622 17.89622 0 00-2.23612 2.03808C442.5324 299.18274 441.85033 299.94861 441.209 300.76258z"/><path fill="#50661a" d="M449.24734,284.21009a3.96885,3.96885,0,0,1,2.64672-1.55518,6.22638,6.22638,0,0,1,1.58472-.04223,8.84752,8.84752,0,0,1,1.55249.31958l.18851.05273-.077.19434c-1.0014,2.52954-1.85223,5.12793-2.69244,7.72046-.8222,2.60083-1.56293,5.22607-2.28809,7.85571q-1.04584,3.95618-1.95788,7.94824c-.6117,2.66113-1.14969,5.33813-1.70029,8.01831.33643-2.71387.74066-5.42261,1.27057-8.1084.482-2.6958,1.13614-5.35644,1.8-8.01294.66968-2.656,1.46493-5.27881,2.32123-7.88061.851-2.60474,1.80441-5.17188,2.91159-7.68677l.11145.24683-.7316-.218c-.2489-.04688-.49637-.10913-.74667-.15039a5.97424,5.97424,0,0,0-1.51795-.04907A4.00707,4.00707,0,0,0,449.24734,284.21009Z"/><path fill="#50661a" d="M451.89754,307.65345a14.19642,14.19642,0,0,0-1.02688-2.707,2.4371,2.4371,0,0,0-.87851-.94678,2.98819,2.98819,0,0,0-1.37164-.25537,2.021,2.021,0,0,1,1.565-.20874,2.33711,2.33711,0,0,1,1.24154,1.08667A4.54589,4.54589,0,0,1,451.89754,307.65345Z"/><path fill="#c4ce6e" d="M423.29487,370.32981s-1.524-5.26048-5.39241-2.28651a7.76313,7.76313,0,0,0-2.68087,4.113c-.69766,2.51767-1.30072,7.08012.41768,13.55487,0,0,3.96025-5.47889,6.89-7.41739C425.83344,376.10757,427.96478,371.11059,423.29487,370.32981Z"/><path fill="#8b9d36" d="M423.29485 370.32972a6.63493 6.63493 0 00-1.50247 1.54565 15.12533 15.12533 0 00-1.18488 1.80151 34.459 34.459 0 00-1.90692 3.8794c-.58435 1.32226-1.08819 2.67993-1.5885 4.04224l-1.47281 4.11254c.12577-.72.29221-1.43066.43763-2.14819.16809-.71118.37728-1.41162.56445-2.11938.40668-1.406.92139-2.77906 1.468-4.14136a27.305 27.305 0 012.08017-3.88721A8.8189 8.8189 0 01423.29485 370.32972zM428.87824 297.25536s.12906-5.4837-4.4466-3.861a7.62959 7.62959 0 00-3.78719 3.0779c-1.42021 2.17875-3.36442 6.33356-3.673 13.03392 0 0 5.41528-3.97855 8.78641-4.90872C429.55972 303.54841 433.08926 299.45734 428.87824 297.25536z"/><path fill="#5e7c24" d="M428.87823,297.25525a6.52174,6.52174,0,0,0-1.89524,1.00147,14.86334,14.86334,0,0,0-1.67,1.345,33.88053,33.88053,0,0,0-2.98087,3.0979c-.95312,1.07666-1.84033,2.21143-2.72515,3.35181l-2.63553,3.45483c.3356-.645.70718-1.2688,1.06079-1.90576.37317-.62378.78256-1.22461,1.173-1.83936A43.34658,43.34658,0,0,1,421.846,302.278a26.89117,26.89117,0,0,1,3.149-3.05347A8.67862,8.67862,0,0,1,428.87823,297.25525Z"/><path fill="#8b9d36" d="M463.41283,370.32981s1.52394-5.26048,5.39241-2.28651a7.76324,7.76324,0,0,1,2.68087,4.113c.69766,2.51767,1.30072,7.08012-.41768,13.55487,0,0-3.96025-5.47889-6.89-7.41739C460.87426,376.10757,458.74292,371.11059,463.41283,370.32981Z"/><path fill="#5e7c24" d="M463.41283,370.32972a8.81836,8.81836,0,0,1,3.10535,3.0852,27.304,27.304,0,0,1,2.08017,3.88721c.5466,1.3623,1.06134,2.73535,1.468,4.14136.18713.70776.39633,1.4082.56445,2.11938.14539.71753.31183,1.42822.43759,2.14819l-1.47281-4.11254c-.5003-1.36231-1.00415-2.72-1.5885-4.04224a34.45367,34.45367,0,0,0-1.90689-3.8794,15.12917,15.12917,0,0,0-1.1849-1.80151A6.63418,6.63418,0,0,0,463.41283,370.32972Z"/><path fill="none" stroke="#50661a" stroke-miterlimit="10" stroke-width=".644" d="M464.78818 314.722s-19.26145-16.458-24.25291 79.69477M446.5041 314.722s-9.58228 63.41556-3.84058 79.69477M439.01037 394.4168s-7.12112-28.57719-15.7155-24.087M440.03371 385.89474s6.2063-106.17217-11.15547-88.63938M447.69732 394.4168s7.12113-28.57719 15.71551-24.087M420.83911 356.77171s13.47981-3.30669 20.82918 36.98143M425.27962 331.80849s3.9054 2.60556 18.683 61.94465M462.19257 345.27135S447.59637 368.37787 446.24 394.4168"/><path fill="#d6694b" d="M423.37142,387.59652v5.34632a1.85288,1.85288,0,0,0,1.83439,1.87085h36.75276a1.85288,1.85288,0,0,0,1.83438-1.87085v-4.927a1.85337,1.85337,0,0,0-1.81386-1.87073l-36.75276-.41936A1.8524,1.8524,0,0,0,423.37142,387.59652Z"/><polygon fill="#e19974" points="425.126 394.814 426.433 422.408 459.867 422.408 462.039 394.814 425.126 394.814"/><path fill="#5e7c24" d="M456.17559,343.69874c.05109-2.51793,5.257,2.04964,5.257,2.04964-3.10074-13.91745-13.00822-8.11372-13.00822-8.11372-9.05924-10.228-14.94111-2.93427-14.94111-2.93427,4.08915-1.399,5.42271,1.2036,5.42271,1.2036a10.888,10.888,0,0,0-7.04971,1.40534c-4.76544,3.956-3.2023,13.41644-3.2023,13.41644,1.56938-2.23819,6.48153-3.31837,8.96953-3.48739,1.56315-.1042,1.28871.66368.86786,1.2492a3.1611,3.1611,0,0,1-1.06535.91084,62.50911,62.50911,0,0,0-7.17712,4.37885c-2.33506,1.83487,3.36832,10.67723,3.36832,10.67723,1.21208-1.80231,4.638-2.99955,4.638-2.99955,3.69385-.31882-3.611,5.08811-3.611,5.08811l4.22964,6.6496,4.49785-1.67221-.87409-2.67407c.17227-2.58957,1.57592.94992,2.23288,1.50938.657.56614,6.39867-4.58694,6.39867-4.58694s-3.33-12.68763-.7336-11.26926c2.603,1.41185,4.08292,7.16364,4.68911,7.4564.45293.22127,2.973-4.10563,4.22341-6.31126a6.89892,6.89892,0,0,0,.67628-5.25077A20.51143,20.51143,0,0,0,456.17559,343.69874Zm-14.5265-.104c-1.65878,1.37278-4.21064.61157-4.61871-.40983-.41493-1.01505.85477-3.03863,2.7559-4.3269,1.78-1.21028,3.82779-.30579,4.23618.71577C444.43707,340.58862,443.4929,342.05925,441.64909,343.59469Z"/><path fill="#50661a" d="M448.42287,337.63465a31.04011,31.04011,0,0,1,.64588,4.605,21.60375,21.60375,0,0,1-.414,4.65405,35.91671,35.91671,0,0,1-1.22867,4.5c-.47849,1.47046-.974,2.94336-1.52808,4.39356a70.3882,70.3882,0,0,1-3.9491,8.41772,24.46936,24.46936,0,0,0-1.80358,4.227,31.47291,31.47291,0,0,0-1.13492,4.48071,25.35562,25.35562,0,0,1,2.49664-8.93212,80.03817,80.03817,0,0,0,3.79077-8.42554c.56757-1.43115,1.07642-2.88306,1.57291-4.346.50021-1.459.94961-2.927,1.30127-4.417a21.53083,21.53083,0,0,0,.58285-4.5481A37.12754,37.12754,0,0,0,448.42287,337.63465Z"/><path fill="#50661a" d="M448.85943 343.81775a11.73714 11.73714 0 012.4284 2.18287 20.6906 20.6906 0 011.93137 2.64184 23.9502 23.9502 0 011.51218 2.89575 21.638 21.638 0 011.08334 3.07325l-1.53458-2.85157c-.52258-.93774-1.04071-1.874-1.609-2.77929q-.83771-1.366-1.77481-2.66748A25.06911 25.06911 0 00448.85943 343.81775zM444.35766 358.68909A7.1188 7.1188 0 01445.936 360.983a6.12875 6.12875 0 01.41543 1.35327 1.97048 1.97048 0 01-.19678 1.415 3.29928 3.29928 0 00-.28915-1.28589c-.16653-.40845-.338-.81616-.51938-1.22437A21.09977 21.09977 0 01444.35766 358.68909zM446.86834 352.13587l-3.26993 1.2373c-1.0798.42408-2.15469.854-3.20065 1.34107a28.55384 28.55384 0 00-3.06818 1.58032 13.94317 13.94317 0 00-2.75323 2.09009 9.12243 9.12243 0 012.47677-2.51 17.8263 17.8263 0 013.07831-1.74658A25.32045 25.32045 0 01446.86834 352.13587z"/><path fill="#c4ce6e" d="M479.277,327.96627s7.4681-11.15591,16.80819,2.01815c0,0-7.31492-2.20688-6.24232.483a21.737,21.737,0,0,1,6.84,5.16732,8.22337,8.22337,0,0,1,1.65506,5.91114c-.28407,2.96476-.91553,8.82105-1.47089,8.81715-.74355-.00523-4.80815-5.35061-8.07637-5.53325S494.551,356.398,494.551,356.398s-3.526,8.35757-4.44257,8.09567-3.92045-3.29854-2.93989-.472l2.07564,2.39251-3.815,4.0393-7.252-4.90477s5.00144-9.41695,1.39934-7.21229c0,0-2.94486,2.99694-3.37093,5.522,0,0-9.71929-6.48415-8.17223-9.61067a76.8199,76.8199,0,0,1,5.30667-8.2329,3.94149,3.94149,0,0,0,.74055-1.7861c.09694-.75349-.09438-1.438-1.47543-.63038-2.4552,1.43568-6.95046,5.06038-7.54646,8.22552,0,0-5.80315-9.22945-2.72638-15.82855a12.74924,12.74924,0,0,1,6.52393-5.05274s-2.51349-2.08266-6.04041,1.469C462.8158,332.41162,465.53446,321.712,479.277,327.96627Z"/><path fill="#8b9d36" d="M479.277,327.96619a80.80111,80.80111,0,0,1,3.23013,10.30762c.8761,3.49756,1.55411,7.04394,2.08512,10.61084a106.34377,106.34377,0,0,1,1.0014,10.76758,92.55411,92.55411,0,0,1-.16446,10.80127c-.02832-3.60035-.04648-7.19312-.33038-10.77417q-.34049-5.37342-1.14341-10.70191c-.47521-3.55762-1.15924-7.084-1.92846-10.59057C481.2531,334.881,480.36065,331.39808,479.277,327.96619Z"/><path fill="#8b9d36" d="M481.141 333.90467a17.15576 17.15576 0 00-1.61389 2.39477 26.08344 26.08344 0 00-1.267 2.56861c-.37628.87841-.70379 1.77807-1.00714 2.69043-.3002.91406-.56869 1.84155-.85431 2.77978a15.34794 15.34794 0 01.36969-2.91333 16.61588 16.61588 0 01.89978-2.8103 14.62 14.62 0 011.43683-2.58472A8.81566 8.81566 0 01481.141 333.90467zM484.24834 348.68055a7.38034 7.38034 0 014.7537 3.48169 6.04266 6.04266 0 01.71737 1.87207 16.39743 16.39743 0 00-2.41339-3A18.26564 18.26564 0 00484.24834 348.68055z"/></g></g></svg>