<?xml version="1.0" encoding="iso-8859-1"?>
<!-- Generator: Adobe Illustrator 23.0.2, SVG Export Plug-In . SVG Version: 6.00 Build 0)  -->
<svg version="1.1" id="Layer_1" xmlns="http://www.w3.org/2000/svg" xmlns:xlink="http://www.w3.org/1999/xlink" x="0px" y="0px"
	 viewBox="0 0 700 550" style="enable-background:new 0 0 700 550;" xml:space="preserve">
<g>
	<g>
		<g>
			<path style="fill:#FFE3CB;" d="M422.968,462.837c16.25-5.08,30.83-10.27,48.37-20.12c18.09-10.16,98.45-58.51,108.9-142.19
				c4.35-34.85-4.99-63.27-6.66-68.16c-3.23-9.47-9.93-28.49-26.84-47.3c-20.7-23.04-44.32-31.97-58.17-37.02
				c-29.14-10.63-53.58-10.07-65.22-9.69c-12.56,0.41-34.73,1.33-59.93,12.34c-16.44,7.18-26.66,15.37-41.72,27.61
				c-23.86,19.41-27,27.49-68.74,67.57c-11.46,11-20.88,19.67-35.26,28.21c-9.97,5.92-18.03,9.23-32.9,15.27
				c-36.55,14.85-46.957,17.857-58.917,26.217c-23.26,16.27-21.753,34.013-22.753,37.833c-3.83,14.48-2.32,26.33-1.77,29.97
				c3.05,20.07,13.86,33.19,20.57,41.13c13.13,15.52,27.41,23.45,32.9,26.44c5.59,3.04,14.72,7.38,26.96,11.89H422.968z"/>
			<path style="fill:none;stroke:#FFE3CB;stroke-miterlimit:10;" d="M361.906,144.039c26.246-11.46,49.336-12.427,62.427-12.853
				c12.116-0.394,37.574-0.975,67.935,10.098c14.426,5.262,39.027,14.563,60.591,38.558c17.608,19.592,24.587,39.407,27.949,49.268
				c1.738,5.096,11.467,34.697,6.936,70.995c-10.879,87.168-94.587,137.525-113.429,148.111"/>
		</g>
	</g>
	<g>
		<polygon style="fill:#A5716A;" points="190.703,341.901 333.988,336.274 257.838,333.621 131.562,341.035 122.783,344.756 		"/>
		<polygon style="fill:#D3A39C;" points="120.403,377.822 200.255,397.668 197.918,341.598 122.783,344.756 		"/>
		<path style="fill:#D3A39C;" d="M131.871,344.374l-9.088,0.382l-15.422-93.632c-1.491-9.053,4.765-17.558,13.852-18.83l7.711-1.08
			L131.871,344.374z"/>
		<g>
			<path style="fill:#935B50;" d="M264.776,461.837c-0.339-0.84-0.515-1.747-0.515-2.708v-66.737c0-4.117,3.331-7.448,7.448-7.448
				c4.117,0,7.448,3.331,7.448,7.448v66.737c0,0.962-0.176,1.869-0.515,2.708H264.776z"/>
		</g>
		<g>
			<path style="fill:#935B50;" d="M181.803,406.681c0.138,0,0.275-0.004,0.414-0.011l150.796-8.26
				c4.108-0.226,7.255-3.737,7.03-7.845c-0.226-4.108-3.757-7.233-7.845-7.03l-150.796,8.26c-4.108,0.226-7.255,3.737-7.03,7.845
				C174.591,403.609,177.877,406.681,181.803,406.681z"/>
		</g>
		<g>
			<path style="fill:#935B50;" d="M326.501,461.837c-0.271-0.745-0.42-1.53-0.433-2.37l-2.14-149.277
				c-0.041-2.83-1.327-5.512-3.643-7.557c-2.803-2.465-6.622-3.629-10.495-3.196l-54.061,5.986c-4.076,0.46-7.76-2.492-8.22-6.582
				c-0.447-4.09,2.492-7.773,6.582-8.22l54.061-5.999c8.058-0.88,16.048,1.612,21.993,6.839c5.498,4.862,8.586,11.443,8.681,18.512
				l2.14,149.277c0.014,0.907-0.135,1.774-0.42,2.587H326.501z"/>
		</g>
		<path style="fill:#C38F86;" d="M200.1,390.943l134.909-6.245c4.349-0.201,7.753-3.725,7.716-7.99l-0.281-32.528
			c-0.039-4.494-3.869-8.076-8.455-7.907l-135.336,4.998c-4.419,0.163-7.883,3.759-7.792,8.089l0.709,33.774
			C191.663,387.621,195.524,391.155,200.1,390.943z"/>
		<path style="fill:#C38F86;" d="M131.562,341.035l126.276-7.414l-8.654-93.789c-0.516-5.587-5.212-9.856-10.823-9.838
			l-105.208,0.34c-6.364,0.021-11.34,5.496-10.753,11.833L131.562,341.035z"/>
		<g>
			<path style="fill:#935B50;" d="M105.084,293.953c1.165-1.503,2.898-2.56,4.943-2.817l9.683-1.232l40.031-5.078
				c7.259-0.921,14.585,1.314,20.097,6.135c5.525,4.835,8.708,11.795,8.762,19.122l1.097,149.21c0,0.894-0.149,1.747-0.433,2.546
				h-14.03c-0.284-0.758-0.433-1.584-0.433-2.438l-1.097-149.21c-0.014-3.115-1.327-5.959-3.67-8.004
				c-2.343-2.058-5.336-2.979-8.423-2.587l-40.708,5.173l-9.006,1.138c-2.275,0.298-4.442-0.474-5.999-1.923L105.084,293.953z"/>
		</g>
		<g>
			<path style="fill:#935B50;" d="M132.86,461.837c0.352-0.962,0.501-2.004,0.42-3.101l-12.378-153.963l-1.192-14.869l-4.55-56.675
				c-0.339-4.103-3.941-7.15-8.031-6.825c-4.103,0.325-7.15,3.914-6.825,8.017l4.78,59.532l0.813,10.035l12.54,155.954
				c0.054,0.664,0.19,1.3,0.42,1.896H132.86z"/>
		</g>
		<g>
			
				<rect x="141.515" y="358.283" transform="matrix(0.1856 -0.9826 0.9826 0.1856 -262.8309 465.8993)" style="fill:#935B50;" width="16.25" height="66.44"/>
		</g>
	</g>
	<g>
		<g>
			<g>
				<path style="fill:#D6694B;" d="M386.933,77.658h134.532v152.707H386.933V77.658z M516.685,82.437H391.714v143.147h124.971
					V82.437z"/>
				
					<rect x="389.293" y="80.52" transform="matrix(-1 -4.483226e-11 4.483226e-11 -1 907.2845 210.8531)" style="fill:#D6694B;" width="128.698" height="49.814"/>
			</g>
			<path style="fill:#935B50;" d="M383.506,237.562h141.386c0.713,0,1.291-0.578,1.291-1.291v-4.574
				c0-0.713-0.578-1.291-1.291-1.291H383.506c-0.713,0-1.291,0.578-1.291,1.291v4.574
				C382.216,236.984,382.794,237.562,383.506,237.562z"/>
			
				<rect x="391.714" y="128.514" transform="matrix(-1 -4.488866e-11 4.488866e-11 -1 908.3989 262.7516)" style="fill:#E19974;" width="124.971" height="5.724"/>
		</g>
		<g>
			<line style="fill:none;stroke:#E19974;stroke-miterlimit:10;" x1="496.8" y1="194.819" x2="454.302" y2="154.011"/>
			<line style="fill:none;stroke:#E19974;stroke-miterlimit:10;" x1="496.8" y1="170.29" x2="461.167" y2="137.303"/>
		</g>
		<g>
			<g>
				<path style="fill:#935B50;" d="M374.702,84.109l158.986,0.339c1.199,0.003,2.173-0.969,2.173-2.168v-2.454
					c0-1.197-0.971-2.168-2.168-2.168H374.706c-1.197,0-2.168,0.971-2.168,2.168v2.115
					C372.538,83.136,373.506,84.106,374.702,84.109z"/>
				<path style="fill:#935B50;" d="M533.708,92.637l-158.986,1.134c-1.203,0.009-2.184-0.965-2.184-2.168v-3.424
					c0-1.197,0.971-2.168,2.168-2.168h158.986c1.198,0,2.168,0.971,2.168,2.168v2.29C535.861,91.661,534.899,92.629,533.708,92.637z
					"/>
				<path style="fill:#935B50;" d="M533.714,101.355l-158.986,1.602c-1.206,0.012-2.19-0.962-2.19-2.168v-2.9
					c0-1.19,0.96-2.158,2.15-2.168l158.986-1.338c1.205-0.01,2.186,0.964,2.186,2.168v2.636
					C535.861,100.376,534.903,101.343,533.714,101.355z"/>
				<path style="fill:#935B50;" d="M533.659,110.94l-158.986-2.465c-1.184-0.018-2.135-0.984-2.135-2.168v-0.065
					c0-1.19,0.96-2.158,2.15-2.168l158.986-1.338c1.205-0.01,2.186,0.964,2.186,2.168v3.868
					C535.861,109.983,534.869,110.959,533.659,110.94z"/>
				<path style="fill:#935B50;" d="M533.672,118.31l-158.986-1.495c-1.189-0.011-2.148-0.979-2.148-2.168v-2.268
					c0-1.209,0.989-2.185,2.199-2.168l158.986,2.224c1.186,0.017,2.138,0.982,2.138,2.168v1.539
					C535.861,117.348,534.877,118.322,533.672,118.31z"/>
				<path style="fill:#935B50;" d="M533.692,123.858H374.706c-1.197,0-2.168-0.971-2.168-2.168v-0.487
					c0-1.2,0.975-2.172,2.175-2.168l158.986,0.487c1.195,0.004,2.162,0.973,2.162,2.168v0.001
					C535.861,122.887,534.89,123.858,533.692,123.858z"/>
			</g>
			<g>
				<g>
					<path style="fill:#935B50;" d="M379.021,126.09c0.369,0,0.691-0.272,0.742-0.649l0.206-1.479
						c0.058-0.41-0.228-0.79-0.638-0.848c-0.408-0.061-0.789,0.227-0.848,0.638l-0.207,1.486c-0.056,0.41,0.231,0.788,0.642,0.844
						C378.953,126.089,378.987,126.09,379.021,126.09z"/>
				</g>
				<g>
					<path style="fill:#935B50;" d="M380.551,216.053c-0.415-0.001-0.749-0.338-0.748-0.752l0.001-0.513
						c0-0.785-0.006-1.617-0.021-2.49c-0.007-0.415,0.323-0.756,0.737-0.763c0.399-0.014,0.756,0.323,0.763,0.737
						c0.015,0.882,0.021,1.723,0.021,2.516l-0.001,0.517c-0.001,0.414-0.337,0.748-0.75,0.748
						C380.553,216.053,380.552,216.053,380.551,216.053z M379.702,209.297c-0.039-1.044-0.088-2.041-0.146-2.994
						c-0.025-0.414,0.29-0.769,0.704-0.793c0.403-0.029,0.769,0.29,0.793,0.704c0.058,0.964,0.107,1.972,0.147,3.027
						c0.016,0.414-0.307,0.762-0.721,0.778c-0.01,0-0.019,0-0.029,0C380.05,210.018,379.717,209.701,379.702,209.297z
						 M379.338,203.316c-0.09-1.042-0.19-2.032-0.3-2.978c-0.047-0.412,0.248-0.784,0.659-0.832
						c0.413-0.049,0.784,0.248,0.832,0.659c0.111,0.96,0.213,1.964,0.304,3.021c0.036,0.413-0.27,0.776-0.683,0.812
						c-0.022,0.002-0.044,0.003-0.065,0.003C379.699,204.002,379.372,203.707,379.338,203.316z M378.65,197.372
						c-0.15-1.026-0.309-2.006-0.474-2.956c-0.071-0.408,0.202-0.796,0.61-0.867c0.411-0.076,0.797,0.202,0.867,0.61
						c0.167,0.962,0.329,1.956,0.48,2.996c0.06,0.41-0.224,0.791-0.634,0.851c-0.037,0.005-0.073,0.008-0.109,0.008
						C379.025,198.013,378.705,197.745,378.65,197.372z M377.633,191.465l-0.576-2.955c-0.079-0.407,0.186-0.8,0.593-0.88
						c0.402-0.076,0.8,0.187,0.88,0.593l0.577,2.96c0.078,0.407-0.189,0.8-0.596,0.878c-0.048,0.009-0.095,0.013-0.142,0.013
						C378.016,192.073,377.702,191.823,377.633,191.465z M376.493,185.538c-0.175-0.967-0.346-1.957-0.508-2.989
						c-0.064-0.41,0.216-0.793,0.625-0.857c0.414-0.063,0.793,0.216,0.857,0.625c0.16,1.021,0.328,1.999,0.501,2.954
						c0.074,0.408-0.196,0.798-0.604,0.872c-0.045,0.008-0.09,0.012-0.135,0.012C376.875,186.154,376.559,185.901,376.493,185.538z
						 M375.561,179.542c-0.121-0.96-0.232-1.962-0.333-3.019c-0.04-0.412,0.263-0.778,0.675-0.818
						c0.416-0.045,0.778,0.263,0.818,0.675c0.099,1.041,0.209,2.028,0.329,2.974c0.052,0.411-0.239,0.786-0.65,0.838
						c-0.032,0.004-0.063,0.006-0.095,0.006C375.932,180.198,375.609,179.922,375.561,179.542z M374.985,173.493
						c-0.064-1.015-0.11-2.023-0.137-3.041c-0.011-0.414,0.315-0.759,0.729-0.77c0.443-0.041,0.759,0.315,0.77,0.729
						c0.027,1,0.072,1.989,0.135,2.987c0.026,0.413-0.288,0.77-0.701,0.796c-0.016,0.001-0.032,0.001-0.048,0.001
						C375.341,174.196,375.01,173.891,374.985,173.493z M375.563,168.166c-0.415-0.002-0.748-0.34-0.746-0.754
						c0.006-0.982,0.026-1.989,0.06-3.036c0.013-0.414,0.342-0.742,0.773-0.726c0.414,0.013,0.739,0.359,0.726,0.773
						c-0.033,1.033-0.053,2.027-0.059,2.997c-0.002,0.413-0.338,0.746-0.75,0.746C375.566,168.166,375.564,168.166,375.563,168.166z
						 M375.713,162.134c-0.414-0.021-0.732-0.374-0.711-0.787c0.049-0.964,0.106-1.968,0.171-3.02
						c0.025-0.413,0.362-0.724,0.795-0.702c0.414,0.025,0.728,0.381,0.702,0.795c-0.065,1.046-0.121,2.044-0.17,3.003
						c-0.021,0.401-0.352,0.712-0.749,0.712C375.738,162.135,375.726,162.135,375.713,162.134z M376.067,156.111
						c-0.413-0.028-0.725-0.387-0.696-0.8c0.066-0.962,0.138-1.964,0.214-3.012c0.03-0.413,0.396-0.722,0.803-0.693
						c0.413,0.03,0.724,0.389,0.693,0.803c-0.076,1.045-0.148,2.046-0.214,3.006c-0.027,0.396-0.356,0.698-0.747,0.698
						C376.102,156.113,376.085,156.112,376.067,156.111z M376.499,150.093c-0.413-0.031-0.723-0.391-0.692-0.804l0.227-3.009
						c0.032-0.413,0.396-0.717,0.805-0.691c0.413,0.032,0.722,0.392,0.691,0.805l-0.227,3.007c-0.03,0.394-0.358,0.694-0.747,0.694
						C376.537,150.095,376.518,150.095,376.499,150.093z M376.961,144.078c-0.413-0.035-0.719-0.398-0.684-0.811
						c0.087-1.025,0.177-2.029,0.269-3.012c0.039-0.413,0.411-0.718,0.816-0.677c0.413,0.039,0.715,0.404,0.677,0.816
						c-0.091,0.979-0.181,1.979-0.268,2.999c-0.033,0.391-0.361,0.687-0.746,0.687C377.004,144.081,376.982,144.08,376.961,144.078z
						 M377.512,138.069c-0.412-0.042-0.712-0.41-0.67-0.822c0.104-1.031,0.212-2.034,0.32-3.008
						c0.046-0.412,0.426-0.708,0.828-0.663c0.412,0.046,0.708,0.417,0.663,0.828c-0.108,0.97-0.214,1.968-0.319,2.994
						c-0.039,0.386-0.365,0.674-0.745,0.674C377.563,138.072,377.537,138.071,377.512,138.069z M378.162,132.068
						c-0.411-0.049-0.705-0.423-0.655-0.834c0.125-1.039,0.249-2.04,0.372-3c0.053-0.411,0.431-0.696,0.839-0.649
						c0.411,0.053,0.701,0.429,0.649,0.839c-0.123,0.958-0.247,1.954-0.371,2.989c-0.046,0.381-0.37,0.661-0.744,0.661
						C378.223,132.073,378.193,132.072,378.162,132.068z"/>
				</g>
				<g>
					<path style="fill:#935B50;" d="M380.466,220.629c0.402,0,0.735-0.319,0.749-0.724c0.016-0.456,0.031-0.958,0.045-1.502
						c0.01-0.414-0.318-0.758-0.732-0.768c-0.39,0.008-0.758,0.317-0.768,0.732c-0.013,0.539-0.028,1.036-0.044,1.487
						c-0.014,0.414,0.31,0.761,0.724,0.775C380.448,220.629,380.457,220.629,380.466,220.629z"/>
				</g>
			</g>
		</g>
		<g>
			<g>
				<polygon style="fill:#E19974;" points="409.16,225.584 423.297,225.584 428.06,200.55 404.397,200.55 				"/>
				<polygon style="fill:#D6694B;" points="404.941,203.408 404.397,200.55 428.06,200.55 427.516,203.408 				"/>
				<g>
					
						<rect x="420.055" y="213.717" transform="matrix(-0.7071 0.7071 -0.7071 -0.7071 873.2977 69.9252)" style="fill:#D6694B;" width="4.223" height="4.223"/>
					
						<rect x="414.083" y="213.717" transform="matrix(-0.7071 0.7071 -0.7071 -0.7071 863.102 74.1484)" style="fill:#D6694B;" width="4.223" height="4.223"/>
					
						<rect x="408.179" y="213.717" transform="matrix(-0.7071 0.7071 -0.7071 -0.7071 853.0236 78.323)" style="fill:#D6694B;" width="4.223" height="4.223"/>
				</g>
			</g>
			<g>
				<path style="fill:#558031;" d="M410.722,179.482c0,0-1.241,17.537,6.034,21.254
					C416.756,200.736,419.275,194.087,410.722,179.482z"/>
				<path style="fill:#849F4C;" d="M434.199,187.015c0,0-11.903,2.054-17.443,13.721
					C416.756,200.736,429.845,196.29,434.199,187.015z"/>
				<path style="fill:#A6B862;" d="M429.979,209.987c0,0-6.053-9.056-13.223-9.251C416.756,200.736,417.836,208.028,429.979,209.987
					z"/>
				<path style="fill:#849F4C;" d="M422.512,181.981c0,0-8.399,7.669-5.756,18.754C416.756,200.736,421.409,195.804,422.512,181.981
					z"/>
				<path style="fill:#A6B862;" d="M416.756,200.736c0,0-2.951-10.802-17.868-13.572
					C398.888,187.164,402.245,196.999,416.756,200.736z"/>
				<path style="fill:#849F4C;" d="M394.936,197.912c0,0,11.382-4.692,21.82,2.824C416.756,200.736,402.88,202.402,394.936,197.912z
					"/>
				<path style="fill:#558031;" d="M395.04,208.836c0,0,5.496-8.803,21.717-8.1L395.04,208.836z"/>
				<path style="fill:#558031;" d="M440.33,199.311c0,0-14.948-5.543-23.769,1.16C416.561,200.471,424.937,205.085,440.33,199.311z"
					/>
				<path style="fill:#558031;" d="M428.073,183.262c0,0-13.338,9.433-11.424,17.481
					C416.648,200.743,425.902,193.324,428.073,183.262z"/>
				<path style="fill:#849F4C;" d="M404.676,210.125c0,0,10.996-1.877,12.081-9.389
					C416.756,200.736,408.722,201.134,404.676,210.125z"/>
			</g>
		</g>
	</g>
	<g>
		<path style="fill:#FFBA55;" d="M235.493,187.666h-73.644c-1.105,0-2-0.895-2-2v-79.727c0-1.105,0.895-2,2-2h87.288
			c1.105,0,2,0.895,2,2v66.675L235.493,187.666z"/>
		<g>
			<path style="fill:#FFBA55;" d="M249.137,187.666c1.105,0,2-0.895,2-2v-13.052l-15.644,15.052H249.137z"/>
		</g>
		<g>
			<g>
				<path style="fill:#E6952A;" d="M175.493,113.318c-0.829,0-1.5-0.671-1.5-1.5v-14.4c0-0.829,0.671-1.5,1.5-1.5s1.5,0.671,1.5,1.5
					v14.4C176.993,112.647,176.321,113.318,175.493,113.318z"/>
			</g>
			<g>
				<path style="fill:#E6952A;" d="M165.493,113.318c-0.829,0-1.5-0.671-1.5-1.5v-14.4c0-0.829,0.671-1.5,1.5-1.5s1.5,0.671,1.5,1.5
					v14.4C166.993,112.647,166.321,113.318,165.493,113.318z"/>
			</g>
			<g>
				<path style="fill:#E6952A;" d="M185.493,113.318c-0.829,0-1.5-0.671-1.5-1.5v-14.4c0-0.829,0.671-1.5,1.5-1.5s1.5,0.671,1.5,1.5
					v14.4C186.993,112.647,186.321,113.318,185.493,113.318z"/>
			</g>
			<g>
				<path style="fill:#E6952A;" d="M195.493,113.318c-0.829,0-1.5-0.671-1.5-1.5v-14.4c0-0.829,0.671-1.5,1.5-1.5s1.5,0.671,1.5,1.5
					v14.4C196.993,112.647,196.321,113.318,195.493,113.318z"/>
			</g>
			<g>
				<path style="fill:#E6952A;" d="M205.493,113.318c-0.829,0-1.5-0.671-1.5-1.5v-14.4c0-0.829,0.671-1.5,1.5-1.5s1.5,0.671,1.5,1.5
					v14.4C206.993,112.647,206.321,113.318,205.493,113.318z"/>
			</g>
			<g>
				<path style="fill:#E6952A;" d="M215.493,113.318c-0.829,0-1.5-0.671-1.5-1.5v-14.4c0-0.829,0.671-1.5,1.5-1.5s1.5,0.671,1.5,1.5
					v14.4C216.993,112.647,216.321,113.318,215.493,113.318z"/>
			</g>
			<g>
				<path style="fill:#E6952A;" d="M225.493,113.318c-0.829,0-1.5-0.671-1.5-1.5v-14.4c0-0.829,0.671-1.5,1.5-1.5s1.5,0.671,1.5,1.5
					v14.4C226.993,112.647,226.321,113.318,225.493,113.318z"/>
			</g>
			<g>
				<path style="fill:#E6952A;" d="M235.493,113.318c-0.829,0-1.5-0.671-1.5-1.5v-14.4c0-0.829,0.671-1.5,1.5-1.5s1.5,0.671,1.5,1.5
					v14.4C236.993,112.647,236.321,113.318,235.493,113.318z"/>
			</g>
			<g>
				<path style="fill:#E6952A;" d="M245.493,113.318c-0.829,0-1.5-0.671-1.5-1.5v-14.4c0-0.829,0.671-1.5,1.5-1.5s1.5,0.671,1.5,1.5
					v14.4C246.993,112.647,246.321,113.318,245.493,113.318z"/>
			</g>
		</g>
		<polygon style="fill:#E6952A;" points="251.067,172.542 235.424,172.686 235.562,187.737 		"/>
		<circle style="fill:#E6952A;" cx="213.993" cy="128.818" r="6.48"/>
		<circle style="fill:#E6952A;" cx="231.973" cy="128.818" r="6.48"/>
		<circle style="fill:#E6952A;" cx="176.581" cy="144.818" r="6.48"/>
		<circle style="fill:#E6952A;" cx="195.493" cy="144.818" r="6.48"/>
		<circle style="fill:#E6952A;" cx="213.993" cy="144.818" r="6.48"/>
		<circle style="fill:#E6952A;" cx="231.973" cy="144.818" r="6.48"/>
		<circle style="fill:#E6952A;" cx="176.581" cy="160.818" r="6.48"/>
		<circle style="fill:#E6952A;" cx="195.493" cy="160.818" r="6.48"/>
		<circle style="fill:#E6952A;" cx="213.993" cy="160.818" r="6.48"/>
		<circle style="fill:#E6952A;" cx="231.973" cy="160.818" r="6.48"/>
		<circle style="fill:#E6952A;" cx="176.581" cy="175.818" r="6.48"/>
		<g>
			<g>
				<path style="fill:#AF2F2F;" d="M191.727,154.479c1.693,1.853,3.046,3.908,4.32,6.01c0.618,1.062,1.222,2.133,1.761,3.242
					c0.546,1.105,1.053,2.233,1.45,3.427c-0.859-0.919-1.607-1.904-2.316-2.912c-0.716-1.004-1.367-2.046-2.004-3.097
					C193.701,159.023,192.544,156.852,191.727,154.479z"/>
			</g>
			<g>
				<path style="fill:#AF2F2F;" d="M199.258,154.479c-0.818,2.373-1.975,4.544-3.211,6.669c-0.637,1.051-1.289,2.093-2.004,3.097
					c-0.709,1.008-1.457,1.993-2.316,2.912c0.397-1.194,0.904-2.322,1.45-3.427c0.539-1.109,1.143-2.18,1.761-3.242
					C196.212,158.387,197.565,156.332,199.258,154.479z"/>
			</g>
		</g>
	</g>
	<g>
		<g>
			<g>
				<path style="fill:#8B9D36;" d="M537.781,436.18c0.374-0.737,37.379-74.073,35.084-103.573l1.237-0.095
					c2.322,29.846-33.68,101.207-35.214,104.23L537.781,436.18z"/>
			</g>
			<path style="fill:#8B9D36;" d="M573.446,334.223c-0.99-1.87-1.371-3.639-1.567-5.376c-0.172-1.734-0.104-3.427,0.169-5.087
				c0.272-1.66,0.758-3.284,1.483-4.868c0.008-0.016,0.015-0.032,0.023-0.048c1.076-2.264,4.498-1.693,4.781,0.797
				c0.002,0.018,0.004,0.035,0.006,0.053c0.172,1.734,0.104,3.427-0.177,5.086c-0.28,1.658-0.765,3.282-1.491,4.866
				C575.923,331.226,574.989,332.775,573.446,334.223z"/>
			<path style="fill:#8B9D36;" d="M570.914,353.143c-2.113-0.227-3.804-1.186-5.25-2.366c-1.429-1.206-2.581-2.727-3.385-4.448
				c-0.817-1.712-1.192-3.686-1.098-5.636c0.001-0.021,0.002-0.043,0.004-0.064c0.146-2.471,3.506-3.138,4.697-0.968
				c0.034,0.062,0.068,0.123,0.102,0.185c0.724,1.329,1.313,2.585,1.932,3.899c0.608,1.31,1.165,2.681,1.69,4.19
				C570.122,349.458,570.594,351.072,570.914,353.143z"/>
			<path style="fill:#8B9D36;" d="M573.17,341.247c-2.113-0.227-3.804-1.186-5.25-2.366c-1.429-1.206-2.581-2.727-3.385-4.448
				c-0.817-1.712-1.192-3.686-1.098-5.636c0.001-0.021,0.002-0.043,0.004-0.064c0.146-2.471,3.506-3.138,4.697-0.968
				c0.034,0.062,0.068,0.123,0.102,0.185c0.724,1.329,1.313,2.585,1.932,3.899c0.608,1.31,1.165,2.681,1.69,4.19
				C572.379,337.562,572.851,339.176,573.17,341.247z"/>
			<path style="fill:#8B9D36;" d="M572.824,344.512c0.253-2.154,0.958-3.886,1.8-5.49c0.859-1.588,1.897-3.01,3.086-4.29
				c1.188-1.281,2.536-2.414,4.06-3.381c0.033-0.02,0.065-0.04,0.098-0.06c2.14-1.309,4.678,1.06,3.521,3.285
				c-0.018,0.034-0.036,0.068-0.053,0.102c-0.86,1.588-1.897,3.01-3.093,4.284c-1.195,1.275-2.542,2.408-4.066,3.376
				C576.634,343.287,574.955,344.11,572.824,344.512z"/>
			<path style="fill:#8B9D36;" d="M566.217,369.209c-1.857-1.124-3.142-2.485-4.255-3.918c-1.09-1.442-1.956-2.977-2.629-4.591
				c-0.675-1.614-1.148-3.312-1.399-5.102c-0.008-0.066-0.017-0.132-0.024-0.198c-0.295-2.467,2.869-3.779,4.406-1.827
				c0.041,0.052,0.082,0.105,0.123,0.157c1.09,1.442,1.956,2.977,2.621,4.595c0.667,1.618,1.141,3.315,1.391,5.105
				C566.679,365.23,566.733,367.101,566.217,369.209z"/>
			<path style="fill:#8B9D36;" d="M561.526,383.464c-1.875-1.282-3.174-2.787-4.3-4.36c-1.102-1.582-1.978-3.252-2.659-4.997
				c-0.682-1.745-1.163-3.568-1.417-5.479c-0.007-0.055-0.013-0.111-0.02-0.167c-0.29-2.514,2.986-3.786,4.468-1.735
				c0.033,0.045,0.065,0.091,0.098,0.136c1.101,1.582,1.977,3.252,2.651,5c0.675,1.748,1.155,3.571,1.41,5.482
				C561.989,379.265,562.046,381.252,561.526,383.464z"/>
			<path style="fill:#8B9D36;" d="M556.28,396.48c-2.037-1.293-3.515-2.851-4.825-4.49c-1.287-1.649-2.355-3.402-3.235-5.245
				c-0.881-1.842-1.566-3.778-2.033-5.817c-0.009-0.042-0.018-0.083-0.027-0.125c-0.539-2.529,2.732-4.084,4.352-2.068
				c0.027,0.033,0.053,0.066,0.08,0.1c1.287,1.649,2.355,3.402,3.228,5.249c0.874,1.846,1.559,3.781,2.025,5.821
				C556.289,391.953,556.564,394.084,556.28,396.48z"/>
			<path style="fill:#8B9D36;" d="M551.001,409.529c-2.089-1.227-3.629-2.74-5.004-4.339c-1.353-1.611-2.49-3.333-3.443-5.153
				c-0.954-1.819-1.716-3.738-2.262-5.769l0,0c-0.656-2.564,2.597-4.261,4.324-2.255l0,0c1.352,1.611,2.491,3.334,3.436,5.157
				c0.946,1.822,1.709,3.741,2.255,5.773C550.831,404.985,551.19,407.114,551.001,409.529z"/>
			<path style="fill:#8B9D36;" d="M546.34,420.381c-2.26-1.14-4.001-2.615-5.584-4.191c-1.563-1.589-2.921-3.31-4.104-5.143
				c-1.185-1.833-2.186-3.783-2.984-5.864l0,0c-0.93-2.509,2.205-4.525,4.102-2.638l0,0c1.563,1.59,2.921,3.31,4.097,5.148
				c1.177,1.837,2.179,3.787,2.977,5.868C545.621,415.655,546.241,417.851,546.34,420.381z"/>
			<path style="fill:#8B9D36;" d="M540.536,432.143c-2.151-1.472-3.746-3.216-5.174-5.042c-1.406-1.837-2.593-3.781-3.593-5.816
				c-1.001-2.035-1.808-4.165-2.396-6.401l0,0c-0.658-2.612,2.721-4.266,4.38-2.144l0,0c1.405,1.837,2.593,3.781,3.585,5.82
				c0.994,2.038,1.8,4.168,2.389,6.405C540.294,427.212,540.693,429.542,540.536,432.143z"/>
			<path style="fill:#8B9D36;" d="M569.633,359.101c0.636-2.273,1.681-4.082,2.849-5.75c1.185-1.65,2.53-3.118,4.013-4.43
				c1.482-1.313,3.108-2.462,4.893-3.431c0.042-0.022,0.084-0.044,0.126-0.066c2.275-1.188,4.645,1.501,3.18,3.609
				c-0.027,0.039-0.054,0.078-0.081,0.116c-1.185,1.65-2.53,3.118-4.019,4.423c-1.487,1.306-3.113,2.457-4.899,3.424
				C573.893,357.946,571.968,358.756,569.633,359.101z"/>
			<path style="fill:#8B9D36;" d="M565.465,372.667c0.724-2.078,1.803-3.65,2.99-5.07c1.201-1.399,2.541-2.599,4.002-3.629
				c1.459-1.031,3.043-1.884,4.767-2.539c0.017-0.006,0.035-0.013,0.052-0.019c2.384-0.868,4.412,2.019,2.786,3.967
				c-0.012,0.014-0.024,0.028-0.036,0.043c-1.201,1.399-2.541,2.599-4.006,3.622c-1.464,1.024-3.048,1.878-4.772,2.533
				C569.511,372.209,567.666,372.691,565.465,372.667z"/>
			<path style="fill:#8B9D36;" d="M560.943,385.526c1.12-2.02,2.523-3.49,4.012-4.794c1.5-1.282,3.11-2.348,4.816-3.228
				c1.705-0.882,3.51-1.57,5.425-2.043l0,0c2.546-0.592,4.192,2.612,2.229,4.338v0c-1.5,1.282-3.11,2.348-4.82,3.221
				c-1.709,0.874-3.513,1.563-5.429,2.036C565.25,385.506,563.238,385.791,560.943,385.526z"/>
			<path style="fill:#8B9D36;" d="M555.297,399.366c1.362-1.931,2.955-3.288,4.618-4.472c1.672-1.161,3.434-2.096,5.273-2.839
				c1.84-0.743,3.76-1.285,5.77-1.603c0.047-0.007,0.093-0.014,0.14-0.02c2.542-0.361,3.878,2.967,1.792,4.464
				c-0.038,0.028-0.077,0.055-0.115,0.082c-1.672,1.16-3.434,2.097-5.277,2.831c-1.843,0.735-3.763,1.278-5.773,1.595
				C559.706,399.699,557.617,399.82,555.297,399.366z"/>
			<path style="fill:#8B9D36;" d="M550.559,410.896c1.834-1.79,3.819-2.981,5.851-3.991c2.038-0.986,4.135-1.736,6.284-2.285
				c2.148-0.55,4.35-0.889,6.611-0.994l0,0c2.682-0.094,3.601,3.532,1.199,4.727v0c-2.038,0.985-4.135,1.736-6.286,2.277
				c-2.15,0.542-4.352,0.881-6.613,0.986C555.337,411.697,553.024,411.596,550.559,410.896z"/>
			<path style="fill:#8B9D36;" d="M545.854,420.708c1.827-1.56,3.742-2.509,5.683-3.272c1.945-0.739,3.924-1.238,5.933-1.53
				c2.009-0.294,4.049-0.373,6.123-0.212h0c2.631,0.238,3.152,3.858,0.694,4.827l0,0c-1.945,0.738-3.924,1.238-5.935,1.522
				c-2.01,0.285-4.05,0.365-6.124,0.203C550.151,422.061,548.047,421.691,545.854,420.708z"/>
			<path style="fill:#8B9D36;" d="M542.47,428.624c2.292-1.355,4.602-2.092,6.919-2.643c2.317-0.526,4.642-0.809,6.973-0.883
				c2.331-0.076,4.668,0.065,7.013,0.448l0,0c2.666,0.464,2.782,4.249,0.149,4.875h0c-2.317,0.525-4.642,0.809-6.973,0.875
				c-2.331,0.068-4.668-0.073-7.013-0.456C547.192,430.431,544.84,429.836,542.47,428.624z"/>
			<path style="fill:#8B9D36;" d="M560.035,434.672c2.497,0.959,1.925,4.645-0.745,4.803l0,0c-2.269,0.109-4.501-0.023-6.7-0.361
				c-2.199-0.336-4.366-0.887-6.495-1.677c-2.126-0.813-4.223-1.814-6.224-3.433c2.397-0.936,4.699-1.256,6.971-1.387
				c2.269-0.108,4.5,0.023,6.698,0.369C555.739,433.332,557.905,433.882,560.035,434.672L560.035,434.672z"/>
			<path style="fill:#8B9D36;" d="M574.024,329.31"/>
		</g>
		<g>
			<g>
				<path style="fill:#5F7D37;" d="M555.532,421.872c-0.156-0.935-15.437-93.94-2.777-125.442l-1.321-0.53
					c-12.808,31.872,2.054,122.37,2.694,126.207L555.532,421.872z"/>
			</g>
			<path style="fill:#5F7D37;" d="M551.564,297.999c1.727-1.706,2.752-3.511,3.564-5.346c0.785-1.839,1.293-3.716,1.565-5.626
				c0.273-1.91,0.3-3.855,0.051-5.838c-0.003-0.02-0.006-0.04-0.008-0.061c-0.399-2.848-4.341-3.4-5.508-0.772
				c-0.008,0.019-0.016,0.037-0.025,0.056c-0.784,1.839-1.293,3.716-1.556,5.628c-0.264,1.912-0.291,3.856-0.042,5.84
				C549.882,293.867,550.372,295.884,551.564,297.999z"/>
			<path style="fill:#5F7D37;" d="M547.827,319.58c2.391,0.478,4.572,0.011,6.561-0.783c1.979-0.828,3.763-2.097,5.235-3.705
				c1.483-1.593,2.573-3.625,3.141-5.792c0.006-0.024,0.012-0.048,0.018-0.072c0.69-2.755-2.759-4.641-4.808-2.676
				c-0.058,0.056-0.117,0.112-0.175,0.167c-1.25,1.206-2.327,2.378-3.456,3.604c-1.116,1.225-2.197,2.534-3.291,4.005
				C549.961,315.819,548.889,317.424,547.827,319.58z"/>
			<path style="fill:#5F7D37;" d="M549.449,305.782c2.391,0.478,4.572,0.011,6.561-0.783c1.979-0.828,3.763-2.097,5.235-3.705
				c1.483-1.593,2.573-3.625,3.141-5.792c0.006-0.024,0.012-0.048,0.018-0.072c0.69-2.755-2.759-4.641-4.808-2.676
				c-0.058,0.056-0.117,0.112-0.175,0.167c-1.25,1.206-2.327,2.378-3.456,3.604c-1.116,1.225-2.197,2.534-3.291,4.005
				C551.583,302.021,550.511,303.625,549.449,305.782z"/>
			<path style="fill:#5F7D37;" d="M548.705,309.476c0.464-2.445,0.288-4.583-0.081-6.629c-0.394-2.034-1.041-3.947-1.903-5.757
				c-0.86-1.811-1.945-3.514-3.281-5.098c-0.029-0.033-0.058-0.066-0.086-0.099c-1.892-2.169-5.486-0.449-4.985,2.385
				c0.008,0.043,0.016,0.087,0.023,0.13c0.395,2.034,1.041,3.947,1.912,5.753c0.869,1.807,1.954,3.51,3.29,5.094
				C544.956,306.825,546.51,308.303,548.705,309.476z"/>
			<path style="fill:#5F7D37;" d="M547.442,338.783c2.419-0.592,4.294-1.639,6.005-2.825c1.689-1.203,3.165-2.586,4.457-4.122
				c1.294-1.535,2.396-3.23,3.286-5.103c0.032-0.069,0.063-0.139,0.095-0.208c1.171-2.599-1.841-5.123-4.195-3.516
				c-0.063,0.043-0.126,0.086-0.189,0.13c-1.689,1.204-3.165,2.586-4.45,4.128c-1.287,1.541-2.39,3.236-3.279,5.11
				C548.305,334.268,547.602,336.298,547.442,338.783z"/>
			<path style="fill:#5F7D37;" d="M547.673,356c2.494-0.758,4.434-1.959,6.206-3.294c1.75-1.352,3.284-2.879,4.63-4.555
				c1.347-1.675,2.5-3.506,3.436-5.51c0.026-0.058,0.053-0.117,0.079-0.176c1.183-2.652-1.967-5.172-4.294-3.436
				c-0.052,0.038-0.103,0.077-0.154,0.116c-1.75,1.353-3.283,2.879-4.622,4.561c-1.34,1.681-2.493,3.512-3.429,5.516
				C548.612,351.244,547.865,353.4,547.673,356z"/>
			<path style="fill:#5F7D37;" d="M548.939,372.052c2.674-0.715,4.829-1.912,6.826-3.255c1.976-1.362,3.749-2.914,5.345-4.629
				c1.599-1.714,3.014-3.597,4.226-5.669c0.024-0.042,0.048-0.085,0.072-0.128c1.461-2.583-1.586-5.41-4.052-3.761
				c-0.041,0.027-0.081,0.054-0.122,0.082c-1.976,1.363-3.749,2.914-5.339,4.635c-1.591,1.72-3.007,3.603-4.218,5.675
				C550.487,367.094,549.452,369.332,548.939,372.052z"/>
			<path style="fill:#5F7D37;" d="M550.229,388.152c2.708-0.624,4.915-1.751,6.97-3.029c2.035-1.298,3.873-2.792,5.541-4.456
				c1.67-1.663,3.164-3.501,4.461-5.537l0,0c1.6-2.581-1.377-5.557-3.957-3.956l0,0c-2.034,1.298-3.873,2.792-5.535,4.463
				c-1.663,1.669-3.157,3.508-4.454,5.543C551.978,383.236,550.853,385.443,550.229,388.152z"/>
			<path style="fill:#5F7D37;" d="M551.598,401.634c2.866-0.471,5.279-1.487,7.555-2.667c2.257-1.202,4.336-2.618,6.262-4.218
				c1.927-1.599,3.694-3.389,5.284-5.392l0,0c1.881-2.427-0.857-5.711-3.583-4.298l0,0c-2.258,1.203-4.336,2.618-6.256,4.226
				c-1.921,1.606-3.688,3.396-5.277,5.4C554.011,396.709,552.577,398.899,551.598,401.634z"/>
			<path style="fill:#5F7D37;" d="M553.906,416.506c2.861-0.872,5.207-2.232,7.398-3.74c2.171-1.527,4.138-3.247,5.933-5.131
				c1.796-1.883,3.411-3.937,4.825-6.183l0,0c1.619-2.633-1.511-5.606-4.057-3.853l0,0c-2.17,1.528-4.139,3.247-5.927,5.137
				c-1.789,1.889-3.404,3.943-4.818,6.19C555.867,411.191,554.629,413.604,553.906,416.506z"/>
			<path style="fill:#5F7D37;" d="M547.18,326.543c0.086-2.707-0.436-5.046-1.141-7.275c-0.729-2.214-1.697-4.283-2.869-6.229
				c-1.171-1.947-2.555-3.764-4.177-5.438c-0.038-0.039-0.077-0.077-0.115-0.116c-2.082-2.083-5.601,0.045-4.722,2.856
				c0.016,0.052,0.033,0.104,0.049,0.155c0.73,2.214,1.697,4.284,2.878,6.224c1.179,1.942,2.563,3.76,4.185,5.434
				C542.913,323.814,544.743,325.362,547.18,326.543z"/>
			<path style="fill:#5F7D37;" d="M547.076,342.826c-0.077-2.524-0.719-4.616-1.529-6.578c-0.833-1.945-1.888-3.72-3.132-5.349
				c-1.243-1.631-2.683-3.11-4.345-4.419c-0.017-0.013-0.034-0.026-0.051-0.039c-2.311-1.771-5.524,0.693-4.415,3.384
				c0.008,0.02,0.016,0.039,0.024,0.059c0.833,1.944,1.888,3.72,3.14,5.343c1.25,1.625,2.69,3.104,4.352,4.414
				C542.805,340.934,544.658,342.096,547.076,342.826z"/>
			<path style="fill:#5F7D37;" d="M547.603,358.458c-0.531-2.597-1.562-4.688-2.742-6.627c-1.201-1.919-2.597-3.64-4.161-5.19
				c-1.563-1.552-3.302-2.926-5.235-4.103h0c-2.583-1.523-5.487,1.418-3.932,3.982v0c1.201,1.919,2.596,3.64,4.168,5.183
				c1.57,1.545,3.308,2.92,5.242,4.096C542.895,356.955,545,357.959,547.603,358.458z"/>
			<path style="fill:#5F7D37;" d="M549.022,375.55c-0.827-2.583-2.104-4.616-3.517-6.484c-1.43-1.846-3.038-3.476-4.796-4.921
				c-1.758-1.446-3.673-2.7-5.764-3.739c-0.049-0.024-0.098-0.047-0.146-0.07c-2.659-1.27-5.266,1.914-3.497,4.27
				c0.033,0.043,0.065,0.087,0.098,0.13c1.431,1.845,3.038,3.476,4.802,4.914c1.764,1.439,3.679,2.693,5.771,3.731
				C544.082,374.397,546.327,375.248,549.022,375.55z"/>
			<path style="fill:#5F7D37;" d="M550.243,389.801c-1.392-2.59-3.155-4.577-5.032-6.381c-1.891-1.78-3.93-3.323-6.093-4.662
				c-2.163-1.341-4.456-2.469-6.894-3.362l0,0c-2.903-1.025-5.157,2.628-2.938,4.763l0,0c1.892,1.78,3.929,3.323,6.097,4.654
				c2.167,1.332,4.461,2.462,6.9,3.354C544.737,389.033,547.304,389.719,550.243,389.801z"/>
			<path style="fill:#5F7D37;" d="M552.017,402.159c-1.463-2.336-3.233-4.033-5.095-5.537c-1.875-1.478-3.87-2.705-5.969-3.716
				c-2.098-1.013-4.304-1.801-6.63-2.338l0,0c-2.962-0.645-4.777,3.139-2.42,5.045l0,0c1.875,1.478,3.87,2.705,5.973,3.707
				c2.102,1.004,4.308,1.792,6.634,2.329C546.849,402.162,549.28,402.481,552.017,402.159z"/>
			<path style="fill:#5F7D37;" d="M552.999,411.988c-2.043-2.272-4.318-3.873-6.664-5.273c-2.356-1.373-4.803-2.482-7.329-3.365
				c-2.525-0.885-5.132-1.535-7.83-1.922l0,0c-3.078-0.409-4.507,3.694-1.84,5.285l0,0c2.356,1.372,4.803,2.482,7.332,3.356
				c2.528,0.876,5.135,1.526,7.834,1.913C547.208,412.342,549.987,412.5,552.999,411.988z"/>
			<path style="fill:#5F7D37;" d="M531.691,412.567c-3.063,0.191-3.705,4.422-0.837,5.513l0,0c2.446,0.899,4.934,1.523,7.458,1.91
				c2.523,0.389,5.084,0.531,7.687,0.399c2.607-0.159,5.247-0.534,7.994-1.617c-2.302-1.849-4.712-2.991-7.154-3.916
				c-2.446-0.899-4.934-1.523-7.459-1.901C536.855,412.577,534.295,412.434,531.691,412.567L531.691,412.567z"/>
			<path style="fill:none;" d="M552.62,292.423"/>
		</g>
		<g>
			<g>
				<path style="fill:#C4CE6E;" d="M556.742,441.175c-0.307-0.605-30.681-60.801-28.798-85.016l-1.015-0.078
					c-1.906,24.499,27.646,83.074,28.905,85.555L556.742,441.175z"/>
			</g>
			<path style="fill:#C4CE6E;" d="M527.468,357.486c0.813-1.535,1.125-2.987,1.286-4.413c0.141-1.423,0.086-2.813-0.138-4.176
				c-0.223-1.362-0.622-2.695-1.217-3.996c-0.006-0.013-0.013-0.026-0.019-0.04c-0.883-1.858-3.692-1.39-3.924,0.654
				c-0.002,0.014-0.003,0.029-0.005,0.043c-0.141,1.423-0.086,2.813,0.145,4.174c0.23,1.361,0.628,2.694,1.224,3.994
				C525.434,355.026,526.201,356.298,527.468,357.486z"/>
			<path style="fill:#C4CE6E;" d="M529.547,373.016c1.734-0.187,3.122-0.973,4.31-1.942c1.173-0.99,2.119-2.238,2.778-3.651
				c0.671-1.405,0.979-3.026,0.901-4.626c-0.001-0.018-0.002-0.035-0.003-0.053c-0.12-2.028-2.878-2.576-3.855-0.795
				c-0.028,0.051-0.056,0.101-0.084,0.151c-0.595,1.091-1.078,2.122-1.586,3.201c-0.499,1.076-0.956,2.2-1.387,3.439
				C530.196,369.992,529.809,371.316,529.547,373.016z"/>
			<path style="fill:#C4CE6E;" d="M527.694,363.251c1.734-0.187,3.122-0.973,4.31-1.942c1.173-0.99,2.119-2.238,2.778-3.651
				c0.671-1.405,0.979-3.026,0.901-4.626c-0.001-0.018-0.002-0.035-0.003-0.053c-0.12-2.028-2.878-2.576-3.855-0.795
				c-0.028,0.051-0.056,0.101-0.084,0.152c-0.595,1.091-1.078,2.122-1.586,3.201c-0.499,1.076-0.956,2.2-1.387,3.439
				C528.344,360.227,527.956,361.552,527.694,363.251z"/>
			<path style="fill:#C4CE6E;" d="M527.979,365.931c-0.208-1.768-0.786-3.19-1.477-4.507c-0.705-1.303-1.557-2.471-2.533-3.521
				c-0.975-1.051-2.081-1.981-3.333-2.775c-0.027-0.017-0.053-0.033-0.08-0.049c-1.756-1.074-3.84,0.87-2.89,2.696
				c0.015,0.028,0.029,0.056,0.044,0.084c0.706,1.303,1.557,2.471,2.538,3.516c0.981,1.047,2.086,1.977,3.337,2.771
				C524.851,364.926,526.229,365.602,527.979,365.931z"/>
			<path style="fill:#C4CE6E;" d="M533.402,386.204c1.524-0.923,2.579-2.04,3.493-3.216c0.895-1.184,1.605-2.444,2.158-3.769
				c0.554-1.325,0.943-2.718,1.148-4.188c0.007-0.054,0.014-0.108,0.02-0.162c0.242-2.025-2.355-3.102-3.617-1.5
				c-0.034,0.043-0.067,0.086-0.101,0.129c-0.894,1.184-1.606,2.443-2.152,3.771c-0.548,1.328-0.937,2.721-1.142,4.19
				C533.023,382.938,532.978,384.474,533.402,386.204z"/>
			<path style="fill:#C4CE6E;" d="M537.252,397.904c1.539-1.052,2.606-2.288,3.529-3.579c0.905-1.298,1.624-2.669,2.183-4.102
				c0.56-1.432,0.955-2.929,1.163-4.497c0.006-0.046,0.011-0.091,0.016-0.137c0.238-2.063-2.451-3.108-3.668-1.424
				c-0.027,0.037-0.054,0.075-0.08,0.112c-0.904,1.298-1.623,2.669-2.176,4.104c-0.554,1.435-0.948,2.931-1.157,4.5
				C536.872,394.458,536.826,396.089,537.252,397.904z"/>
			<path style="fill:#C4CE6E;" d="M541.558,408.588c1.672-1.061,2.885-2.34,3.96-3.685c1.056-1.353,1.933-2.793,2.655-4.305
				c0.724-1.512,1.285-3.101,1.668-4.775c0.007-0.034,0.015-0.068,0.022-0.103c0.443-2.076-2.242-3.352-3.572-1.698
				c-0.022,0.027-0.044,0.055-0.065,0.082c-1.056,1.354-1.933,2.793-2.649,4.309c-0.717,1.515-1.28,3.104-1.662,4.778
				C541.551,404.873,541.325,406.622,541.558,408.588z"/>
			<path style="fill:#C4CE6E;" d="M545.892,419.299c1.714-1.007,2.979-2.249,4.107-3.562c1.111-1.322,2.044-2.736,2.826-4.229
				c0.783-1.493,1.408-3.068,1.857-4.735l0,0c0.539-2.105-2.131-3.497-3.549-1.851v0c-1.11,1.322-2.045,2.736-2.82,4.233
				c-0.777,1.496-1.402,3.071-1.851,4.738C546.031,415.569,545.737,417.317,545.892,419.299z"/>
			<path style="fill:#C4CE6E;" d="M549.717,428.207c1.855-0.936,3.284-2.147,4.584-3.441c1.283-1.304,2.398-2.717,3.369-4.222
				c0.972-1.504,1.794-3.105,2.449-4.813l0,0c0.763-2.06-1.81-3.714-3.367-2.165l0,0c-1.283,1.305-2.398,2.717-3.363,4.226
				c-0.966,1.508-1.789,3.108-2.443,4.817C550.308,424.328,549.799,426.13,549.717,428.207z"/>
			<path style="fill:#C4CE6E;" d="M554.482,437.862c1.766-1.208,3.075-2.64,4.247-4.139c1.154-1.508,2.128-3.103,2.949-4.774
				c0.822-1.67,1.484-3.419,1.967-5.254l0,0c0.54-2.144-2.234-3.502-3.595-1.76l0,0c-1.154,1.508-2.129,3.103-2.943,4.777
				c-0.816,1.673-1.478,3.421-1.961,5.258C554.68,433.814,554.353,435.726,554.482,437.862z"/>
			<path style="fill:#C4CE6E;" d="M530.598,377.907c-0.522-1.866-1.38-3.35-2.339-4.72c-0.972-1.354-2.077-2.559-3.294-3.636
				c-1.216-1.078-2.551-2.021-4.017-2.816c-0.034-0.018-0.069-0.036-0.103-0.054c-1.867-0.975-3.813,1.232-2.61,2.962
				c0.022,0.032,0.044,0.064,0.067,0.096c0.973,1.354,2.077,2.56,3.299,3.631c1.221,1.072,2.555,2.016,4.021,2.811
				C527.101,376.959,528.681,377.623,530.598,377.907z"/>
			<path style="fill:#C4CE6E;" d="M534.019,389.042c-0.594-1.706-1.48-2.996-2.454-4.161c-0.986-1.148-2.086-2.134-3.285-2.979
				c-1.198-0.846-2.498-1.547-3.913-2.084c-0.014-0.005-0.029-0.01-0.043-0.016c-1.957-0.713-3.622,1.657-2.287,3.257
				c0.01,0.012,0.019,0.023,0.029,0.035c0.986,1.148,2.086,2.134,3.289,2.973c1.202,0.841,2.502,1.541,3.917,2.079
				C530.698,388.666,532.212,389.062,534.019,389.042z"/>
			<path style="fill:#C4CE6E;" d="M537.731,399.597c-0.92-1.658-2.071-2.865-3.293-3.935c-1.231-1.052-2.553-1.927-3.953-2.65
				c-1.4-0.724-2.881-1.289-4.453-1.677l0,0c-2.09-0.486-3.441,2.144-1.829,3.561h0c1.231,1.052,2.553,1.927,3.956,2.644
				c1.403,0.718,2.884,1.283,4.456,1.671C534.196,399.581,535.847,399.815,537.731,399.597z"/>
			<path style="fill:#C4CE6E;" d="M542.365,410.958c-1.118-1.585-2.426-2.699-3.791-3.671c-1.372-0.953-2.819-1.721-4.329-2.33
				c-1.51-0.61-3.086-1.055-4.736-1.315c-0.038-0.006-0.077-0.011-0.115-0.017c-2.087-0.296-3.183,2.436-1.471,3.664
				c0.031,0.023,0.063,0.045,0.095,0.068c1.372,0.953,2.819,1.721,4.331,2.324c1.513,0.604,3.089,1.049,4.739,1.309
				C538.747,411.231,540.461,411.33,542.365,410.958z"/>
			<path style="fill:#C4CE6E;" d="M546.255,420.422c-1.505-1.469-3.135-2.447-4.803-3.276c-1.672-0.809-3.394-1.425-5.158-1.875
				c-1.763-0.451-3.57-0.73-5.426-0.816h0c-2.201-0.077-2.956,2.899-0.984,3.88l0,0c1.673,0.809,3.394,1.425,5.159,1.869
				c1.765,0.445,3.572,0.723,5.428,0.809C542.332,421.079,544.231,420.996,546.255,420.422z"/>
			<path style="fill:#C4CE6E;" d="M550.116,428.476c-1.5-1.281-3.071-2.059-4.665-2.686c-1.596-0.607-3.221-1.016-4.87-1.256
				c-1.649-0.241-3.323-0.306-5.026-0.174h0c-2.16,0.195-2.587,3.167-0.57,3.962h0c1.597,0.606,3.221,1.016,4.872,1.249
				c1.65,0.234,3.324,0.299,5.027,0.167C546.589,429.586,548.317,429.282,550.116,428.476z"/>
			<path style="fill:#C4CE6E;" d="M552.894,434.973c-1.881-1.112-3.778-1.717-5.679-2.169c-1.902-0.432-3.81-0.664-5.723-0.725
				c-1.913-0.063-3.832,0.053-5.756,0.367l0,0c-2.188,0.381-2.283,3.488-0.122,4.001l0,0c1.902,0.431,3.81,0.664,5.724,0.718
				c1.913,0.056,3.832-0.06,5.756-0.374C549.018,436.457,550.948,435.969,552.894,434.973z"/>
			<path style="fill:#C4CE6E;" d="M538.476,439.938c-2.049,0.787-1.581,3.812,0.611,3.942h0c1.862,0.089,3.694-0.019,5.5-0.296
				c1.805-0.276,3.584-0.728,5.332-1.376c1.745-0.667,3.466-1.489,5.109-2.818c-1.968-0.768-3.857-1.031-5.722-1.138
				c-1.862-0.089-3.694,0.019-5.498,0.303C542.003,438.837,540.224,439.289,538.476,439.938L538.476,439.938z"/>
			<path style="fill:#C4CE6E;" d="M526.993,353.454"/>
		</g>
		<g>
			<path style="fill:#935B50;" d="M537.115,461.837h25.721l8.275-43.901c0.203-1.078-0.616-2.077-1.703-2.077h-38.866
				c-1.087,0-1.906,0.999-1.703,2.077L537.115,461.837z"/>
			<path style="fill:#D6694B;" d="M529.437,421.109l-0.598-3.172c-0.203-1.078,0.616-2.077,1.703-2.077h38.866
				c1.087,0,1.906,0.999,1.703,2.077l-0.598,3.172H529.437z"/>
			<g>
				<polygon style="fill:#D6694B;" points="560.78,449.404 566.213,443.92 560.78,438.435 555.346,443.92 				"/>
				<polygon style="fill:#D6694B;" points="549.913,449.404 555.346,443.92 549.913,438.435 544.479,443.92 				"/>
				<polygon style="fill:#D6694B;" points="539.171,449.404 544.604,443.92 539.171,438.435 533.737,443.92 				"/>
			</g>
		</g>
	</g>
	<g>
		<g>
			<path style="fill:#DBA972;" d="M488.193,443.07c0,0,16.915-21.242-38.551-76.709l5.114-26.291v0
				c2.151-2.067,3.451-4.863,3.646-7.84l0.288-4.421c0,0-0.197-2.36-3.737-2.164c0,0-5.311-13.884-23.013-8.377l-8.538-2.683
				c0,0-4.721-0.59-4.13,4.327c0,0-4.584,3.683,1.184,12.432c0.898,1.362,2.046,2.539,3.288,3.597
				c2.024,1.725,4.916,4.49,2.642,12.779c-0.995,3.628-2.023,7.246-2.85,10.916l-2.806,12.445c0,0-12.195,12.785,1.18,36.584
				c0,0-6.596,41.174-12.89,47.862c0,0-11.043,2.54-8.115,6.864c0.143,0.212,0.398,0.329,0.654,0.329h9.819
				c0.857,0,1.651-0.446,2.098-1.177l8.237-15.721c0,0,2.95-1.377,2.754-7.278l5.704-19.276c0,0-1.573,31.666-6.097,34.813
				c-4.524,3.147-7.597,6.295-6.81,8.656h10.628c1.054,0,1.991-0.672,2.329-1.67l2.31-8.951c0,0,1.967,1.18,2.557-7.474
				l5.311-18.292l2.557,1.377c0,0-0.736,3.866,8.656,16.407c1.118,1.493,1.906,3.231,2.166,5.078
				c0.652,4.624-1.56,11.283-22.384,6.55l-1.77,6.491c0,0,7.711-0.466,25.019,0.517c0,0-11.686-8.687-10.309-0.033l30.636,0.098
				c0.773-0.029,1.487-0.419,1.928-1.055l4.216-7.304c0,0,42.485,14.948,51.926-7.081c0,0,1.18-6.687-10.228,0.787
				C511.403,455.658,495.668,450.938,488.193,443.07z"/>
			<path style="fill:#DBA972;" d="M421.909,407.666c0,0-6.596,41.174-12.89,47.862c0,0-11.043,2.54-8.115,6.864
				c0.143,0.212,0.398,0.329,0.654,0.329h9.819c0.857,0,1.651-0.446,2.098-1.177l8.237-15.721c0,0,2.95-1.377,2.754-7.278
				l5.704-19.276L421.909,407.666z"/>
			<g>
				<path style="fill:#040000;" d="M439.69,325.523c-0.095-0.667-0.22-1.306-0.371-1.914c-0.164-0.601-0.37-1.182-0.717-1.615
					c-0.326-0.449-0.82-0.701-1.405-0.787c-0.285-0.086-0.602-0.03-0.919-0.06c-0.322,0.005-0.64,0.067-0.987,0.066
					c0.286-0.175,0.594-0.318,0.911-0.461c0.336-0.069,0.67-0.219,1.04-0.183c0.721-0.052,1.544,0.295,2.004,0.919
					c0.462,0.614,0.653,1.331,0.701,2.019C440.003,324.198,439.91,324.883,439.69,325.523z"/>
			</g>
			<path style="fill:#54412E;" d="M450.56,360.952l-0.098,5.409c0,0-23.209,5.212-29.897,4.721l-3.147,1.574
				c0,0-1.475-0.885-2.164-5.016c0,0,4.032-2.459,5.507-1.869L450.56,360.952z"/>
			<g>
				<g>
					<path style="fill:#BC8855;" d="M422.299,326.714c-0.497-0.506-0.957-1.053-1.365-1.635c-0.406-0.583-0.804-1.18-1.124-1.824
						c-0.331-0.637-0.6-1.311-0.794-2.015c-0.182-0.704-0.281-1.453-0.175-2.201l0.002-0.014c0.021-0.145,0.155-0.245,0.3-0.225
						c0.141,0.02,0.24,0.148,0.226,0.289c-0.071,0.704-0.23,1.38-0.462,2.046c-0.117,0.331-0.27,0.657-0.497,0.938
						c-0.21,0.28-0.58,0.522-0.929,0.413c0.358,0.011,0.612-0.247,0.764-0.526c0.154-0.287,0.248-0.607,0.333-0.927
						c0.16-0.644,0.217-1.325,0.263-1.981l0.528,0.05c-0.099,1.324,0.369,2.665,0.92,3.923c0.29,0.629,0.59,1.26,0.937,1.869
						C421.573,325.502,421.92,326.115,422.299,326.714z"/>
				</g>
				<g>
					<path style="fill:#BC8855;" d="M449.357,323.753c-0.482,0.968-0.906,1.96-1.25,2.979c-0.367,1.009-0.665,2.042-0.882,3.089
						c-0.44,2.088-0.634,4.238-0.345,6.341c0.125,1.052,0.366,2.087,0.719,3.086c0.143,0.512,0.421,0.97,0.625,1.459
						c0.203,0.512,0.465,0.893,0.874,1.192c0.397,0.289,0.895,0.448,1.393,0.433c0.491-0.019,1.012-0.201,1.491-0.407
						c0.979-0.413,1.855-1.059,2.686-1.748c-0.741,0.787-1.588,1.489-2.562,2.009c-0.497,0.244-1.004,0.46-1.595,0.518
						c-0.581,0.047-1.177-0.108-1.67-0.43c-0.498-0.304-0.883-0.843-1.073-1.336c-0.22-0.503-0.515-0.977-0.674-1.505
						c-0.384-1.032-0.654-2.105-0.8-3.197c-0.25-2.188-0.055-4.408,0.491-6.52C447.331,327.605,448.19,325.576,449.357,323.753z"/>
				</g>
				<g>
					<path style="fill:#BC8855;" d="M430.662,413.763c-0.032,1.848-0.142,3.688-0.252,5.529l-0.011,0.176l-0.142,0.027
						c-0.851,0.162-1.398-0.268-1.937-0.614c-0.505-0.398-0.972-0.835-1.371-1.32c-0.832-0.948-1.482-2.02-2.091-3.099
						c-0.623-1.074-1.151-2.197-1.629-3.336c-0.508-1.127-0.911-2.297-1.319-3.46l1.65,3.304c0.27,0.552,0.561,1.092,0.863,1.625
						c0.286,0.542,0.58,1.078,0.896,1.6c0.609,1.059,1.309,2.06,2.064,2.996c0.373,0.475,0.804,0.89,1.256,1.265
						c0.237,0.169,0.477,0.331,0.732,0.447c0.24,0.107,0.556,0.167,0.712,0.144l-0.153,0.203
						C430.148,417.418,430.365,415.587,430.662,413.763z"/>
				</g>
				<g>
					<path style="fill:#BC8855;" d="M443.151,415.435c-0.36,1.844-0.759,3.679-1.178,5.508c-0.4,1.834-0.864,3.652-1.303,5.477
						l-0.165-0.328c2.285,0.913,4.515,1.947,6.745,2.983c1.104,0.542,2.203,1.096,3.284,1.686c0.543,0.29,1.07,0.612,1.592,0.94
						c0.51,0.34,1.05,0.666,1.45,1.141c-0.946-0.783-2.09-1.262-3.185-1.802c-1.103-0.532-2.223-1.029-3.349-1.513
						c-2.229-1.018-4.506-1.937-6.751-2.916l-0.225-0.098l0.061-0.23c0.478-1.814,0.933-3.635,1.451-5.439
						C442.074,419.034,442.593,417.23,443.151,415.435z"/>
				</g>
				<g>
					<path style="fill:#BC8855;" d="M476.785,424.139c-1.952-1.334-4.047-2.461-6.237-3.328c-2.186-0.849-4.501-1.475-6.832-1.401
						c-2.331,0.036-4.573,1.073-6.064,2.83c-1.495,1.765-2.337,4.008-2.826,6.288c-0.098,0.563-0.262,1.181-0.307,1.698
						c-0.023,0.559,0.02,1.141,0.092,1.717c0.138,1.155,0.39,2.303,0.667,3.443c0.59,2.275,1.343,4.512,2.186,6.715
						c1.688,4.406,3.706,8.685,5.653,12.999l0.073,0.162l-0.172,0.023l-7.182,0.963l7.143-1.222l-0.099,0.185
						c-2.041-4.265-4.189-8.494-5.902-12.923c-0.863-2.21-1.637-4.458-2.25-6.76c-0.288-1.156-0.556-2.32-0.702-3.515
						c-0.071-0.598-0.113-1.2-0.083-1.823c0.066-0.659,0.224-1.188,0.332-1.789c0.516-2.322,1.393-4.645,2.986-6.501
						c0.806-0.907,1.788-1.676,2.906-2.167c1.115-0.495,2.333-0.727,3.537-0.738c2.417-0.019,4.763,0.647,6.941,1.581
						C472.824,421.53,474.881,422.735,476.785,424.139z"/>
				</g>
				<g>
					<path style="fill:#BC8855;" d="M482.391,450.938c0.008,0.336-0.045,0.651-0.107,0.962c-0.056,0.313-0.155,0.611-0.255,0.909
						c-0.113,0.293-0.227,0.585-0.384,0.862c-0.151,0.279-0.311,0.554-0.533,0.808c-0.009-0.337,0.044-0.651,0.106-0.962
						c0.056-0.313,0.156-0.611,0.256-0.908c0.114-0.292,0.227-0.585,0.385-0.862C482.01,451.467,482.17,451.192,482.391,450.938z"/>
				</g>
				<g>
					<path style="fill:#BC8855;" d="M448.069,462.577c-0.263-0.091-0.469-0.28-0.633-0.496c-0.172-0.215-0.273-0.48-0.326-0.753
						c-0.039-0.274-0.044-0.559,0.051-0.819c0.077-0.262,0.216-0.5,0.416-0.686c0.028,0.277,0.011,0.513,0.034,0.744
						c0.018,0.229,0.039,0.445,0.079,0.658c0.028,0.216,0.092,0.424,0.147,0.648C447.9,462.097,447.982,462.318,448.069,462.577z"/>
				</g>
				<g>
					<path style="fill:#BC8855;" d="M418.442,462.577c-0.189-0.114-0.31-0.276-0.41-0.448c-0.106-0.172-0.157-0.369-0.181-0.574
						c-0.009-0.206,0-0.426,0.109-0.625c0.099-0.198,0.265-0.37,0.481-0.417c-0.036,0.219-0.047,0.375-0.042,0.53l0.039,0.462
						c0.005,0.158,0.031,0.321,0.027,0.499C418.47,462.179,418.475,462.362,418.442,462.577z"/>
				</g>
				<g>
					<path style="fill:#BC8855;" d="M403.513,462.609c-0.217-0.054-0.379-0.193-0.51-0.362c-0.137-0.168-0.206-0.389-0.219-0.618
						c-0.001-0.228,0.058-0.467,0.204-0.637c0.131-0.178,0.313-0.3,0.524-0.35c-0.036,0.22-0.096,0.383-0.113,0.543
						c-0.021,0.157-0.035,0.291-0.026,0.428c-0.004,0.138,0.022,0.279,0.039,0.445C403.438,462.221,403.479,462.394,403.513,462.609
						z"/>
				</g>
				<g>
					<path style="fill:#BC8855;" d="M435.087,441.264c0.143,2.375,0.056,4.738-0.114,7.096l-0.002,0.025l-0.002,0.01
						c-0.168,0.735-0.429,1.425-0.835,2.059c-0.197,0.314-0.438,0.618-0.754,0.832c-0.307,0.219-0.687,0.349-1.05,0.303
						c0.74-0.11,1.179-0.714,1.478-1.32c0.292-0.62,0.485-1.309,0.609-1.976l-0.004,0.035
						C434.507,445.967,434.682,443.609,435.087,441.264z"/>
				</g>
			</g>
			
				<ellipse transform="matrix(0.3065 -0.9519 0.9519 0.3065 -3.5676 639.9865)" style="fill:#040000;" cx="437.43" cy="322.442" rx="1.282" ry="0.937"/>
			<ellipse style="fill:#54412E;" cx="422.299" cy="315.619" rx="1.991" ry="1.574"/>
		</g>
		<circle style="fill:#F9C035;" cx="414.112" cy="376.378" r="4.522"/>
		<g>
			<path style="fill:#F9977A;" d="M236.694,417.504l-23.709-12.635c0,0-9.965,11.869,2.554,25.95l14.614,5.817L236.694,417.504z"/>
			<path style="fill:#FFBA55;" d="M225.522,411.601c0,0-10.75-15.851-21.128-12.115c-1.091,0.393-1.924,1.297-2.261,2.407
				l-17.216,56.79c-0.335,1.105,0.369,2.241,1.503,2.459c3.038,0.582,8.773,0.853,12.926-3.939
				c5.905-6.814,1.385-14.34,16.759-23.994C216.106,433.21,216.476,414.651,225.522,411.601z"/>
			<path style="fill:#376F92;" d="M300.367,461.487c41.297-0.032,13.837-38.38,13.726-38.603c0,0-40.909-84.124-41.299-84.678
				c-13.925-19.719-32.959-12.268-33.134-12.166c-22.946,13.461-27.589,32.936-15.632,50.266c0.11,0.16-1.896,1.435-1.675,1.748
				c12.131,17.168,37.878,35.616,54.847,48.024l-42.276-10.787l-9.007,20.592C230.922,437.825,299.949,461.487,300.367,461.487z"/>
			<g>
				<polygon style="fill:#10394F;" points="275.781,397.608 283.667,408.832 291.507,420.087 307.157,442.618 307.51,443.125 
					306.903,443.003 287.605,439.095 268.32,435.119 249.035,431.144 229.768,427.077 249.094,430.852 268.401,434.717 
					287.709,438.583 307.002,442.516 306.748,442.9 291.227,420.281 283.481,408.96 				"/>
			</g>
			<path style="fill:#376F92;" d="M360.134,386.175c15.719-19.068-3.344-34.725-20.209-37.804c-0.25-0.046-0.497-0.088-0.744-0.126
				c0,0-94.965-10.691-95.643-10.691c-24.14-0.007-29.017,19.841-29.056,20.04c-5.19,26.866,10.979,41.538,32.032,41.773
				c0.194,0.002,0.489,0.003,0.872,0.003c21.021-0.001,41.901-3.435,61.827-10.134l14.916-5.015l-24.559,33.544l21.358,12.345
				C325.403,427.142,358.888,387.686,360.134,386.175z"/>
			<path style="fill:#F9977A;" d="M299.638,417.81l-14.94,20.76c0,0,10.431,9.516,26.697,0.008l7.912-9.399L299.638,417.81z"/>
			<path style="fill:#FFBA55;" d="M284.697,435.336c0,0-14.056,17.693-4.511,26.018l67.102,0.019c0,0,5.458-9.545-2.86-13.024
				c-8.319-3.479-8.116,5.318-32.286-10.816C312.142,437.533,290.423,442.975,284.697,435.336z"/>
			<g>
				<path style="fill:#10394F;" d="M213.548,369.202l23.689-0.131l23.689-0.043l47.377-0.081l23.689,0.053
					c0.991,0.013,1.964-0.019,2.971,0.031c1.021,0.01,2.021,0.325,2.932,0.764c0.923,0.439,1.708,1.13,2.346,1.915
					c0.642,0.786,1.12,1.711,1.369,2.697c0.556,1.961,0.18,4.146-0.955,5.828c-1.125,1.639-2.289,3.221-3.432,4.834l-13.776,19.271
					l-13.848,19.22l13.623-19.38l13.695-19.329c1.133-1.613,2.302-3.217,3.404-4.836c1.068-1.598,1.411-3.65,0.88-5.497
					c-0.237-0.928-0.692-1.798-1.299-2.535c-0.603-0.736-1.342-1.382-2.208-1.789c-1.71-0.936-3.73-0.691-5.701-0.722l-23.689,0.04
					l-47.377-0.108l-23.689-0.057L213.548,369.202z"/>
			</g>
			<g>
				<path style="fill:#10394F;" d="M242.387,399.128c4.906,0.218,9.816,0.123,14.714-0.096c4.898-0.235,9.791-0.594,14.656-1.207
					c4.87-0.555,9.721-1.293,14.533-2.238c4.825-0.883,9.589-2.062,14.345-3.286c-2.36,0.673-4.698,1.439-7.081,2.036
					c-2.383,0.6-4.767,1.196-7.178,1.677c-4.806,1.036-9.673,1.772-14.552,2.372c-4.884,0.568-9.791,0.937-14.705,1.079
					c-2.457,0.072-4.915,0.081-7.372,0.05C247.289,399.444,244.833,399.346,242.387,399.128z"/>
			</g>
			<g>
				<path style="fill:#10394F;" d="M306.8,407.889c-1.162,1.677-2.297,3.374-3.482,5.035c-1.182,1.663-2.343,3.341-3.547,4.987
					l-0.076-0.361l5.357,3.057l5.323,3.115c1.78,1.029,3.533,2.103,5.298,3.158c1.768,1.049,3.503,2.155,5.256,3.23
					c-1.806-0.983-3.631-1.934-5.422-2.943c-1.795-1.003-3.601-1.986-5.381-3.014l-5.356-3.058l-5.322-3.116l-0.238-0.14
					l0.162-0.222c1.205-1.646,2.455-3.259,3.682-4.888C304.277,411.099,305.552,409.504,306.8,407.889z"/>
			</g>
			<g>
				<path style="fill:#10394F;" d="M248.322,369.212c0.719-1.512,1.27-3.096,1.721-4.7c0.463-1.601,0.797-3.237,0.976-4.887
					c0.365-3.286,0.105-6.688-1.218-9.714c-1.296-3.027-3.612-5.565-6.408-7.331c-2.781-1.806-5.93-3.035-9.159-3.903
					c3.277,0.665,6.51,1.757,9.392,3.536c0.743,0.408,1.398,0.952,2.08,1.453c0.626,0.571,1.285,1.112,1.833,1.764
					c1.14,1.257,2.105,2.689,2.78,4.256c1.327,3.153,1.593,6.657,1.129,9.991C250.983,363.022,249.904,366.261,248.322,369.212z"/>
			</g>
			<path style="fill:#F9977A;" d="M289.903,374.512c0,0,5.833-0.251,15.766,7.943c9.933,8.194,16.878,15.701,8.741,11.675
				l-6.149-3.17c0,0,4.513,9.318,7.688,14.633c1.722,2.883,1.513,6.616-0.756,9.091c-2.081,2.269-4.545,2.406-9.378-2.993
				c-7.228-8.075-10.096-12.261-11.297-14.777c-0.416-0.872-2.536-3.929-2.536-3.929L289.903,374.512z"/>
			<g>
				<g>
					<path style="fill:#DD765E;" d="M305.087,385.554c0.827,0.711,1.443,1.568,1.992,2.463c0.526,0.907,0.995,1.866,1.183,2.944
						c-0.744-0.794-1.318-1.649-1.86-2.54C305.88,387.521,305.392,386.601,305.087,385.554z"/>
				</g>
				<g>
					<path style="fill:#DD765E;" d="M307.949,398.699c0.78,1.033,1.513,2.088,2.249,3.139l2.193,3.153
						c0.724,1.053,1.462,2.096,2.207,3.132c0.752,1.032,1.523,2.048,2.35,3.043c-1.054-0.759-1.963-1.698-2.824-2.664
						c-0.87-0.963-1.635-2.008-2.381-3.062c-0.731-1.065-1.429-2.152-2.056-3.28C309.054,401.036,308.447,399.896,307.949,398.699z"
						/>
				</g>
				<g>
					<path style="fill:#DD765E;" d="M305.18,401.328l2.254,3.573c0.759,1.18,1.509,2.36,2.3,3.511
						c0.771,1.164,1.604,2.281,2.472,3.365c0.426,0.552,0.904,1.054,1.388,1.553l0.759,0.719c0.28,0.203,0.56,0.414,0.841,0.635
						c-1.343-0.509-2.445-1.495-3.44-2.503c-1.002-1.02-1.874-2.154-2.672-3.326c-0.787-1.181-1.531-2.389-2.172-3.653
						C306.262,403.945,305.655,402.665,305.18,401.328z"/>
				</g>
				<g>
					<path style="fill:#DD765E;" d="M303.192,404.391c1.309,1.975,2.541,3.955,3.843,5.892c1.294,1.946,2.654,3.817,4.129,5.671
						c-1.917-1.411-3.459-3.275-4.784-5.233C305.079,408.741,303.946,406.644,303.192,404.391z"/>
				</g>
			</g>
			<path style="fill:#F9977A;" d="M359.209,321.613c0,0,5.754,0.987,16.645-5.884c10.891-6.87,18.729-13.438,10.149-10.475
				l-6.501,2.366c0,0,5.656-8.671,9.478-13.542c2.073-2.642,2.339-6.371,0.4-9.114c-1.777-2.514-4.204-2.962-9.681,1.782
				c-8.192,7.096-11.567,10.885-13.077,13.229c-0.523,0.812-3.013,3.577-3.013,3.577L359.209,321.613z"/>
			<g>
				<g>
					<path style="fill:#DD765E;" d="M375.668,312.581c0.435-0.999,1.035-1.851,1.667-2.677c0.65-0.815,1.328-1.591,2.167-2.284
						c-0.323,1.045-0.909,1.937-1.546,2.77C377.298,311.209,376.579,311.98,375.668,312.581z"/>
				</g>
				<g>
					<path style="fill:#DD765E;" d="M380.171,299.904c0.646-1.124,1.391-2.178,2.162-3.213c0.765-1.04,1.595-2.03,2.455-2.994
						c0.874-0.951,1.765-1.891,2.75-2.736c0.976-0.849,1.996-1.666,3.138-2.285c-0.947,0.883-1.84,1.792-2.717,2.721
						c-0.871,0.934-1.734,1.875-2.586,2.828l-2.574,2.85C381.935,298.024,381.075,298.978,380.171,299.904z"/>
				</g>
				<g>
					<path style="fill:#DD765E;" d="M377.757,296.946c0.64-1.266,1.404-2.458,2.207-3.624c0.795-1.172,1.686-2.277,2.616-3.349
						c0.94-1.062,1.948-2.076,3.071-2.961c1.115-0.875,2.332-1.714,3.729-2.048c-0.307,0.184-0.611,0.358-0.914,0.524l-0.844,0.617
						c-0.543,0.435-1.081,0.871-1.573,1.365c-0.998,0.966-1.966,1.968-2.878,3.025c-0.93,1.041-1.824,2.117-2.726,3.192
						L377.757,296.946z"/>
				</g>
				<g>
					<path style="fill:#DD765E;" d="M376.172,293.656c1.033-2.139,2.423-4.076,3.963-5.876c1.563-1.774,3.328-3.428,5.408-4.585
						c-1.698,1.652-3.284,3.337-4.814,5.103C379.194,290.055,377.721,291.863,376.172,293.656z"/>
				</g>
			</g>
			<g>
				<path style="fill:#B02336;" d="M233.685,344.208c0.32,1.561,0.754,3.076,1.225,4.563c0.496,1.479,1.05,2.933,1.773,4.295
					c0.719,1.363,1.594,2.625,2.625,3.764c1.07,1.104,2.326,2.009,3.739,2.766c-1.542-0.387-3.045-1.117-4.28-2.203
					c-1.217-1.096-2.197-2.433-2.97-3.864c-0.745-1.447-1.282-2.984-1.638-4.552C233.804,347.41,233.62,345.804,233.685,344.208z"/>
			</g>
			<path style="fill:#F9977A;" d="M280.79,213.392c2.897-0.304,6.855-0.675,11.552,0.99c1.743,0.618,8.116,2.878,11.222,8.912
				c1.18,2.292,1.446,5.048,1.98,10.562c0.333,3.444,1.66,5.91,1.658,10.111c-0.001,2.358-0.392,5.861-1.658,10.023
				c-1.544,5.078-0.55,7.962-1.32,8.912c-3.104,3.825-12.527,0.824-12.669,5.816c-0.087,3.082,2.265,3.656,2.066,7.263
				c-0.259,4.676-15.309,2.131-19.762-0.206c-0.607-0.319-6.128-3.934-5.527-9.385c0.321-2.912,2.794-16.577,2.556-18.34
				c-0.859-6.372-4.07-7.15-6.601-14.853c-1.568-4.772-0.212-8.829,1.98-11.552C270.362,216.557,277.165,213.773,280.79,213.392z"/>
			<path style="fill:#FFBA55;" d="M268.771,263.994c0,0-47.413,18.514-41.091,59.154l-8.542,25.383l9.445-0.096
				c0,0,0.45,8.793,22.84,23.944c6.081,4.115,12.368,8.669,19.162,11.453l18.803,10.089c1.466,0.601,3.148,0.28,4.29-0.819
				l9.193-8.844c1.815-1.746,1.579-4.703-0.478-6.157c-5.383-3.806-11.307-8.593-17.274-14.562
				c-5.403-5.405-9.789-10.728-13.314-15.554c3.249,1.027,9.047,2.398,16.254,1.594c6.714-0.749,11.776-3.065,14.692-4.676
				l1.392-5.801c0,0,17.46,16.557,37.328,6.623c16.85-8.425,26.266-20.938,28.739-24.547c0.443-0.647,0.625-1.434,0.489-2.206
				c-0.468-2.656-2.086-9.294-7.2-15.494c-0.92-1.115-2.526-1.387-3.782-0.672l-29.958,17.037l-7.886-19.763
				c-4.308-9.32-11.149-17.241-19.742-22.859l-10.331-6.755L268.771,263.994z"/>
			<g>
				<path style="fill:#E6952A;" d="M304.143,339.103c0.282-1.726,0.556-3.448,0.749-5.181c0.233-1.727,0.424-3.458,0.565-5.192
					c0.285-3.467,0.478-6.938,0.463-10.409c-0.028-3.47-0.266-6.93-0.718-10.37c-0.316-1.7-0.544-3.43-1.038-5.094
					c-0.338-1.714-1.002-3.321-1.526-4.995c1.582,3.126,2.622,6.514,3.323,9.962c0.639,3.462,0.908,6.979,0.959,10.493
					c-0.009,3.514-0.231,7.023-0.701,10.498C305.747,332.286,305.119,335.741,304.143,339.103z"/>
			</g>
			<ellipse style="fill:#0A0709;" cx="304.219" cy="239.261" rx="1.294" ry="1.609"/>
			<ellipse style="fill:#0A0709;" cx="292.553" cy="239.261" rx="1.294" ry="1.609"/>
			
				<path style="fill:none;stroke:#1E1D22;stroke-width:1.6333;stroke-linecap:round;stroke-linejoin:round;stroke-miterlimit:10;" d="
				M306.811,235.563c0,0-4.043-3.053-8.747,0"/>
			
				<path style="fill:none;stroke:#1E1D22;stroke-width:1.6333;stroke-linecap:round;stroke-linejoin:round;stroke-miterlimit:10;" d="
				M294.72,235.563c0,0-4.043-3.053-8.747,0"/>
			<g>
				<path style="fill:#DD765E;" d="M296.954,236.712c-0.112,1.357,0.108,2.713,0.706,3.897c0.611,1.206,1.159,2.443,2.03,3.443
					l0.653,0.778c0.232,0.257,0.45,0.691,0.419,1.09c-0.041,0.817-0.542,1.434-1.099,1.875c-1.2,0.894-2.736,0.849-4.028,0.51
					c0.677,0.068,1.357,0.067,2.01-0.057c0.651-0.113,1.278-0.356,1.752-0.777c0.452-0.426,0.876-0.984,0.869-1.556
					c0.042-0.547-0.575-0.963-0.999-1.52c-0.886-1.092-1.457-2.369-1.99-3.618C296.728,239.495,296.616,238.033,296.954,236.712z"/>
			</g>
			<g>
				<g>
					<path style="fill:#DD765E;" d="M275.752,237.257c-0.459,0.145-0.864,0.363-1.24,0.612c-0.37,0.259-0.717,0.545-1.035,0.865
						c-0.333,0.306-0.609,0.67-0.914,1.017c-0.292,0.36-0.559,0.742-0.869,1.118c0.052-0.237,0.137-0.461,0.207-0.696l0.313-0.655
						c0.238-0.424,0.525-0.827,0.88-1.172c0.356-0.34,0.756-0.649,1.216-0.843C274.766,237.309,275.265,237.178,275.752,237.257z"/>
				</g>
				<g>
					<path style="fill:#DD765E;" d="M274.701,243.967c0.122-1.031,0.137-2.02-0.033-2.988c-0.075-0.484-0.198-0.959-0.36-1.427
						c-0.149-0.476-0.378-0.921-0.584-1.405c0.387,0.349,0.725,0.764,0.968,1.237c0.267,0.462,0.419,0.983,0.513,1.508
						c0.084,0.527,0.098,1.067,0.006,1.591C275.128,243.003,274.977,243.518,274.701,243.967z"/>
				</g>
			</g>
			<path style="fill:#1E1D22;" d="M282.616,249.963c0,0-2.143-9.253-1.751-11.902c0.547-3.692,0.821-5.537,0.379-7.039
				c-0.708-2.405,0.464-2.718,1.971-5.302c1.414-2.425,5.797-0.462,6.89-0.866c3.069-1.135,2.956-2.427,5.031-2.556
				c2.128-0.132,3.69-0.695,5.065,0.679c1.402,1.402,3.975,5.127,4.61,4.481c1.064-1.084,2.244-4.119,2.374-6.114
				c0.17-2.613-0.939-5.019-1.507-6.283c-0.504-1.121-2.38-5.293-6.286-6.407c-2.25-0.642-2.681,0.442-7.548,0.73
				c-5.048,0.299-5.204-0.83-7.848-0.078c-2.926,0.832-2.815,2.237-7.815,4.968c-1.561,0.853-2.742,1.353-5.105,2.354
				c-6.278,2.658-7.099,2.233-8.543,3.629c-3.113,3.008-2.604,8.18-2.482,9.429c0.346,3.518,1.72,4.576,4.708,10.212
				c4.731,8.926,3.782,12.676,5.516,13.928c0.851,0.614,5.338-2.576,5.318-4.148c-0.027-2.061-1.512-2.711-3.26-5.689
				c-1.221-2.082-2.975-5.07-1.966-7.779c0.611-1.638,1.293-1.19,2.989-1.032c2.303,0.214,3.436,3.421,4.359,5.776
				c0.668,1.704,0.951,3.531,0.842,5.358C278.312,250.382,283.409,251.585,282.616,249.963z"/>
			<path style="fill:#0A0709;" d="M292.949,253.993c0,0,5.096,4.753,9.653,0"/>
			<path style="fill:#935B50;" d="M268.771,263.994c0,0-0.903,12.945,13.772,19.116l3.086-4.214l2.408,4.214
				c0,0,6.472-6.322,3.763-12.643L268.771,263.994z"/>
			<path style="fill:#F9977A;" d="M268.771,263.994c0,0,8.881,13.095,16.858,14.901c0,0,5.268-5.118,6.171-8.429l-6.522-3.512
				L268.771,263.994z"/>
			<g>
				<path style="fill:#E6952A;" d="M262.901,309.902c0.125,2.398,0.22,4.796,0.282,7.194c0.048,2.398,0.138,4.796,0.151,7.194
					l0.057,7.194c0.02,2.398-0.028,4.796-0.038,7.194l-0.115-0.301c2.557,2.869,5.075,5.772,7.579,8.688
					c2.52,2.902,4.997,5.843,7.452,8.802c-2.667-2.77-5.313-5.559-7.917-8.386c-2.619-2.813-5.224-5.64-7.789-8.5l-0.114-0.127
					l-0.001-0.174c-0.01-2.398-0.058-4.796-0.038-7.194l0.057-7.194c0.013-2.398,0.103-4.796,0.151-7.194
					C262.68,314.698,262.776,312.3,262.901,309.902z"/>
			</g>
			<g>
				<path style="fill:#E6952A;" d="M227.679,323.148c0.083,2.124,0.094,4.239,0.115,6.353l0.048,6.333
					c0.006,2.109,0.06,4.214,0.114,6.319c0.032,1.052,0.092,2.102,0.189,3.149c0.027,0.527,0.109,1.044,0.161,1.571
					c0.064,0.523,0.194,1.031,0.276,1.561c-0.838-1.968-1.15-4.118-1.393-6.225c-0.236-2.117-0.317-4.245-0.346-6.367
					c0-2.123,0.038-4.246,0.186-6.363C227.168,327.363,227.35,325.249,227.679,323.148z"/>
			</g>
			<g>
				<path style="fill:#E6952A;" d="M285.629,278.896c1.055,5.841,1.71,11.75,2.18,17.668c0.478,5.92,0.64,11.862,0.676,17.802
					c-0.027,5.94-0.259,11.883-0.794,17.8c-0.472,5.923-1.396,11.802-2.515,17.625l0.536-4.416l0.278-2.204l0.2-2.213l0.438-4.419
					l0.297-4.431c0.21-2.952,0.314-5.911,0.448-8.866c0.063-2.959,0.149-5.917,0.115-8.876c0.048-5.918-0.128-11.838-0.441-17.751
					c-0.153-2.957-0.345-5.913-0.588-8.865C286.241,284.793,285.952,281.844,285.629,278.896z"/>
			</g>
			<g>
				<path style="fill:#E6952A;" d="M315.696,336.259c1.522,1.229,3.153,2.282,4.822,3.228c1.682,0.925,3.435,1.699,5.258,2.225
					c1.817,0.564,3.719,0.74,5.61,0.693l1.425-0.1l1.407-0.277c0.236-0.046,0.478-0.076,0.711-0.135l0.687-0.227
					c0.458-0.156,0.923-0.301,1.397-0.44c-1.69,0.947-3.552,1.806-5.563,1.956c-1.983,0.215-4.031,0.067-5.948-0.51
					c-1.917-0.573-3.735-1.428-5.386-2.521C318.464,339.063,316.95,337.767,315.696,336.259z"/>
			</g>
			<g>
				<path style="fill:#E6952A;" d="M234.551,342.778c0.264,1.938,0.729,3.823,1.294,5.656c0.589,1.826,1.334,3.593,2.3,5.226
					c0.935,1.657,2.199,3.09,3.606,4.353l1.105,0.905l1.214,0.763c0.203,0.128,0.4,0.273,0.61,0.39l0.655,0.306
					c0.44,0.201,0.878,0.415,1.318,0.638c-1.879-0.47-3.823-1.123-5.39-2.393c-1.59-1.203-2.979-2.716-3.978-4.452
					c-1.002-1.731-1.738-3.602-2.19-5.529C234.641,346.717,234.428,344.736,234.551,342.778z"/>
			</g>
			<g>
				<path style="fill:#DD765E;" d="M293.638,266.031c0,0-9.966-0.522-11.766-4.962c0,0,0.457,6.263,9.928,9.398
					c-0.215-1.003-0.366-1.887-0.147-2.464C291.901,267.348,292.891,266.467,293.638,266.031z"/>
			</g>
			<path style="fill:#376F92;" d="M313.641,345.394l22.228,2.499C335.869,347.894,318.607,359.07,313.641,345.394z"/>
		</g>
	</g>
	<line style="fill:none;stroke:#935B50;stroke-width:2;stroke-miterlimit:10;" x1="100" y1="461.837" x2="600" y2="461.837"/>
</g>
</svg>
